<svg xmlns="http://www.w3.org/2000/svg" width="313" height="334" viewBox="0 0 313 334">
  <g id="Group_1564" data-name="Group 1564" transform="translate(-1420 -1580)">
    <text id="Strategy_Consulting" data-name="Strategy &amp; Consulting" transform="translate(1576.859 1823)" fill="#1a1818" font-size="18" font-family="Helvetica-Bold, Helvetica" font-weight="700"><tspan x="-94.504" y="0">Strategy &amp; Consulting</tspan></text>
    <g id="Group_17" data-name="Group 17" transform="translate(625.64 -482.114)">
      <g id="Group_16" data-name="Group 16" transform="translate(858 2123)">
        <g id="Group_15" data-name="Group 15" transform="translate(0 0)">
          <path id="Path_145" data-name="Path 145" d="M659.981,344.043h-3.648a1.045,1.045,0,0,1,0-2.089h3.648a1.045,1.045,0,0,1,0,2.089Z" transform="translate(-473.449 -223.303)" fill="#1a1818"/>
          <path id="Path_146" data-name="Path 146" d="M661.425,344.043h-2a1.045,1.045,0,1,1,0-2.089h2a1.045,1.045,0,1,1,0,2.089Z" transform="translate(-469.05 -223.303)" fill="#1a1818"/>
          <path id="Path_147" data-name="Path 147" d="M662.874,344.043h-1.1a1.045,1.045,0,0,1,0-2.089h1.1a1.045,1.045,0,0,1,0,2.089Z" transform="translate(-465.697 -223.303)" fill="#1a1818"/>
          <path id="Path_148" data-name="Path 148" d="M673.322,323.724a1.043,1.043,0,0,1-1.045-1.045V299.957H635.3v9.259a1.046,1.046,0,0,1-2.092,0v-10.3a1.049,1.049,0,0,1,1.045-1.049h39.071a1.05,1.05,0,0,1,1.045,1.049V322.68a1.046,1.046,0,0,1-1.045,1.045Z" transform="translate(-504.894 -286.076)" fill="#1a1818"/>
          <path id="Path_149" data-name="Path 149" d="M658.005,313.9H639.117a1.045,1.045,0,0,1,0-2.089h18.889a1.045,1.045,0,0,1,0,2.089Z" transform="translate(-497.965 -266.215)" fill="#1a1818"/>
          <path id="Path_150" data-name="Path 150" d="M640.5,296.148h-4.157a1.046,1.046,0,0,1,0-2.092H640.5a1.046,1.046,0,0,1,0,2.092Z" transform="translate(-501.908 -291.499)" fill="#1a1818"/>
          <path id="Path_151" data-name="Path 151" d="M643.087,296.148H638.9a1.046,1.046,0,1,1,0-2.092h4.191a1.046,1.046,0,1,1,0,2.092Z" transform="translate(-498.283 -291.499)" fill="#1a1818"/>
          <path id="Path_152" data-name="Path 152" d="M645.572,296.148h-4.1a1.046,1.046,0,0,1,0-2.092h4.1a1.046,1.046,0,1,1,0,2.092Z" transform="translate(-494.609 -291.499)" fill="#1a1818"/>
          <path id="Path_153" data-name="Path 153" d="M648.01,296.148h-3.975a1.046,1.046,0,0,1,0-2.092h3.975a1.046,1.046,0,0,1,0,2.092Z" transform="translate(-490.959 -291.499)" fill="#fff"/>
          <path id="Path_154" data-name="Path 154" d="M650.654,296.148H646.6a1.046,1.046,0,0,1,0-2.092h4.055a1.046,1.046,0,1,1,0,2.092Z" transform="translate(-487.308 -291.499)" fill="#fff"/>
          <path id="Path_155" data-name="Path 155" d="M673.322,305.38H634.251a1.043,1.043,0,0,1-1.045-1.042V297.9a3.848,3.848,0,0,1,3.844-3.844,1.046,1.046,0,0,1,0,2.092A1.753,1.753,0,0,0,635.3,297.9v5.388h36.98V297.9a1.757,1.757,0,0,0-1.755-1.752,1.046,1.046,0,0,1,0-2.092,3.848,3.848,0,0,1,3.844,3.844v6.438a1.044,1.044,0,0,1-1.045,1.042Z" transform="translate(-504.894 -291.499)" fill="#1a1818"/>
          <path id="Path_156" data-name="Path 156" d="M635.961,299.472h-.216a.856.856,0,0,1-.853-.856v-4.331a.854.854,0,0,1,.853-.853h.216a.856.856,0,0,1,.851.853v4.331a.858.858,0,0,1-.851.856Z" transform="translate(-502.493 -292.387)" fill="#1a1818"/>
          <path id="Path_157" data-name="Path 157" d="M636.576,301.128h-.216a1.9,1.9,0,0,1-1.9-1.9V294.9a1.9,1.9,0,0,1,1.9-1.9h.216a1.9,1.9,0,0,1,1.9,1.9v4.331a1.9,1.9,0,0,1-1.9,1.9Z" transform="translate(-503.108 -293.001)" fill="#ffbb16"/>
          <path id="Path_158" data-name="Path 158" d="M639.136,301.128h-.213a1.9,1.9,0,0,1-1.9-1.9V294.9a1.9,1.9,0,0,1,1.9-1.9h.213a1.9,1.9,0,0,1,1.9,1.9v4.331a1.9,1.9,0,0,1-1.9,1.9Z" transform="translate(-499.456 -293.001)" fill="#ffbb16"/>
          <path id="Path_159" data-name="Path 159" d="M641.084,299.472h-.211a.857.857,0,0,1-.853-.856v-4.331a.855.855,0,0,1,.853-.853h.211a.852.852,0,0,1,.851.853v4.331a.854.854,0,0,1-.851.856Z" transform="translate(-495.192 -292.387)" fill="#1a1818"/>
          <path id="Path_160" data-name="Path 160" d="M641.7,301.128h-.211a1.9,1.9,0,0,1-1.9-1.9V294.9a1.9,1.9,0,0,1,1.9-1.9h.211a1.9,1.9,0,0,1,1.9,1.9v4.331a1.9,1.9,0,0,1-1.9,1.9Z" transform="translate(-495.806 -293.001)" fill="#ffbb16"/>
          <path id="Path_161" data-name="Path 161" d="M643.649,299.472h-.216a.856.856,0,0,1-.851-.856v-4.331a.854.854,0,0,1,.851-.853h.216a.856.856,0,0,1,.851.853v4.331a.858.858,0,0,1-.851.856Z" transform="translate(-491.543 -292.387)" fill="#fff"/>
          <path id="Path_162" data-name="Path 162" d="M644.263,301.128h-.216a1.9,1.9,0,0,1-1.9-1.9V294.9a1.9,1.9,0,0,1,1.9-1.9h.216a1.9,1.9,0,0,1,1.9,1.9v4.331a1.9,1.9,0,0,1-1.9,1.9Z" transform="translate(-492.156 -293.001)" fill="#ffbb16"/>
          <path id="Path_163" data-name="Path 163" d="M646.213,299.472H646a.858.858,0,0,1-.851-.856v-4.331a.856.856,0,0,1,.851-.853h.216a.852.852,0,0,1,.851.853v4.331a.854.854,0,0,1-.851.856Z" transform="translate(-487.892 -292.387)" fill="#fff"/>
          <path id="Path_164" data-name="Path 164" d="M646.826,301.128h-.216a1.9,1.9,0,0,1-1.893-1.9V294.9a1.9,1.9,0,0,1,1.893-1.9h.216a1.9,1.9,0,0,1,1.9,1.9v4.331a1.9,1.9,0,0,1-1.9,1.9Z" transform="translate(-488.504 -293.001)" fill="#ffbb16"/>
          <path id="Path_165" data-name="Path 165" d="M648.776,299.472h-.208a.859.859,0,0,1-.858-.856v-4.331a.857.857,0,0,1,.858-.853h.208a.854.854,0,0,1,.853.853v4.331a.856.856,0,0,1-.853.856Z" transform="translate(-484.244 -292.387)" fill="#fff"/>
          <path id="Path_166" data-name="Path 166" d="M649.388,301.128h-.208a1.9,1.9,0,0,1-1.9-1.9V294.9a1.9,1.9,0,0,1,1.9-1.9h.208a1.9,1.9,0,0,1,1.9,1.9v4.331a1.9,1.9,0,0,1-1.9,1.9Z" transform="translate(-484.857 -293.001)" fill="#ffbb16"/>
          <path id="Path_167" data-name="Path 167" d="M644.28,317.018a1.041,1.041,0,0,1-.856-.444l-5.071-7.194a1.045,1.045,0,1,1,1.706-1.207l4.2,5.965,8.115-11.966a1.045,1.045,0,0,1,1.728,1.176l-8.961,13.212a1.052,1.052,0,0,1-.858.458Z" transform="translate(-497.84 -280.593)" fill="#ffbb16"/>
          <path id="Path_168" data-name="Path 168" d="M648.613,325.909a13.106,13.106,0,0,1-8.243-2.87,1.046,1.046,0,0,1,1.3-1.638,11.03,11.03,0,0,0,6.942,2.424,11.164,11.164,0,1,0-9.908-16.317,1.046,1.046,0,1,1-1.854-.967,13.254,13.254,0,1,1,11.763,19.368Z" transform="translate(-499.873 -283.886)" fill="#1a1818"/>
          <path id="Path_169" data-name="Path 169" d="M647.089,349.667H657.4V324.75H647.089v24.917Z" transform="translate(-485.127 -247.797)" fill="#ffbb16"/>
          <path id="Path_170" data-name="Path 170" d="M647.313,314.986v-4.343a2.692,2.692,0,0,1,2.688-2.7h3.849a2.692,2.692,0,0,1,2.69,2.7v4.343Z" transform="translate(-484.808 -271.724)" fill="#ffbb16"/>
          <path id="Path_171" data-name="Path 171" d="M658.658,346.2h-9.506a3.233,3.233,0,0,1-3.229-3.233V313.645a3.23,3.23,0,0,1,3.229-3.226h9.506a3.231,3.231,0,0,1,3.228,3.226v29.323a3.235,3.235,0,0,1-3.228,3.233Zm-9.506-33.7a1.137,1.137,0,0,0-1.137,1.139v29.323a1.141,1.141,0,0,0,1.137,1.142h9.506a1.139,1.139,0,0,0,1.137-1.142V313.645a1.136,1.136,0,0,0-1.137-1.139Z" transform="translate(-486.787 -268.202)" fill="#ffbb16"/>
          <path id="Path_172" data-name="Path 172" d="M658.652,351.33H647.539a1.046,1.046,0,0,1-1.047-1.05V325.364a1.044,1.044,0,0,1,1.047-1.045h11.113a1.047,1.047,0,0,1,1.047,1.045V350.28a1.049,1.049,0,0,1-1.047,1.05Zm-10.071-2.094h9.024V326.411h-9.024v22.825Z" transform="translate(-485.977 -248.411)" fill="#ffbb16"/>
          <path id="Path_173" data-name="Path 173" d="M657.155,316.641h-9.227a1.044,1.044,0,0,1-1.047-1.045v-4.341a3.739,3.739,0,0,1,3.735-3.74h3.849a3.743,3.743,0,0,1,3.737,3.74V315.6a1.047,1.047,0,0,1-1.047,1.045Zm-8.185-2.087h7.141v-3.3a1.649,1.649,0,0,0-1.646-1.648h-3.849a1.651,1.651,0,0,0-1.646,1.648v3.3Z" transform="translate(-485.423 -272.336)" fill="#1a1818"/>
          <path id="Path_174" data-name="Path 174" d="M653.879,349.68h-1.573a1.044,1.044,0,0,1-.982-.686L646.557,336a1.041,1.041,0,0,1,.982-1.4h11.113a1.061,1.061,0,0,1,.858.444,1.043,1.043,0,0,1,.126.96l-4.77,12.991a1.049,1.049,0,0,1-.987.686Zm-.843-2.089h.116l4-10.9h-8.122l4,10.9Z" transform="translate(-485.977 -233.774)" fill="#1a1818"/>
          <path id="Path_175" data-name="Path 175" d="M649.828,345.89a1.043,1.043,0,0,1-1.042-1.045v-3.839a1.045,1.045,0,1,1,2.089,0v3.839a1.047,1.047,0,0,1-1.047,1.045Z" transform="translate(-482.711 -226.143)" fill="#1a1818"/>
          <path id="Path_176" data-name="Path 176" d="M658.623,336.117H655.09a1.048,1.048,0,0,1-1.042-1.047v-7.291a1.043,1.043,0,1,1,2.087,0v6.246h1.445v-19.88h-4.84a1.045,1.045,0,1,1,0-2.089h5.885a1.043,1.043,0,0,1,1.045,1.045V335.07a1.047,1.047,0,0,1-1.045,1.047Z" transform="translate(-478.578 -265.871)" fill="#ffbb16"/>
          <path id="Path_177" data-name="Path 177" d="M635.973,315.68H620.18a2.445,2.445,0,0,1-2.436-2.441v-.948a2.444,2.444,0,0,1,2.436-2.438h15.793a2.446,2.446,0,0,1,2.436,2.438v.948a2.446,2.446,0,0,1-2.436,2.441Z" transform="translate(-526.908 -269.007)" fill="#fff"/>
          <path id="Path_178" data-name="Path 178" d="M635.419,321.273H617.548a2.579,2.579,0,0,1-2.569-2.572v-.676a2.581,2.581,0,0,1,2.569-2.574h17.871a2.581,2.581,0,0,1,2.572,2.574v.676a2.579,2.579,0,0,1-2.572,2.572Z" transform="translate(-530.845 -261.037)" fill="#ffbb16"/>
          <path id="Path_179" data-name="Path 179" d="M635.419,326.57H617.548a2.574,2.574,0,0,1-2.569-2.564v-.681a2.582,2.582,0,0,1,2.569-2.574h17.871a2.583,2.583,0,0,1,2.572,2.574v.681a2.575,2.575,0,0,1-2.572,2.564Z" transform="translate(-530.845 -253.493)" fill="#ffbb16"/>
          <path id="Path_180" data-name="Path 180" d="M635.419,331.872H617.548a2.578,2.578,0,0,1-2.569-2.567v-.684a2.575,2.575,0,0,1,2.569-2.569h17.871a2.576,2.576,0,0,1,2.572,2.569v.684a2.578,2.578,0,0,1-2.572,2.567Z" transform="translate(-530.845 -245.944)" fill="#ffbb16"/>
          <path id="Path_181" data-name="Path 181" d="M635.419,337.171H617.548a2.577,2.577,0,0,1-2.569-2.572v-.679a2.58,2.58,0,0,1,2.569-2.569h17.871a2.58,2.58,0,0,1,2.572,2.569v.679a2.578,2.578,0,0,1-2.572,2.572Z" transform="translate(-530.845 -238.399)" fill="#fff"/>
          <path id="Path_182" data-name="Path 182" d="M653.6,321.492H615.548a1.827,1.827,0,0,1-1.823-1.823V305.655a1.831,1.831,0,0,1,1.823-1.825h2.884v-4.021a1.722,1.722,0,0,1,1.721-1.726h28.838a1.723,1.723,0,0,1,1.723,1.726v4.021H653.6a1.827,1.827,0,0,1,1.823,1.825v14.014a1.824,1.824,0,0,1-1.823,1.823ZM615.812,319.4h37.515V305.919h-3.655a1.045,1.045,0,0,1-1.047-1.042v-4.7H620.519v4.7a1.046,1.046,0,0,1-1.047,1.042h-3.66V319.4Z" transform="translate(-532.63 -285.765)" fill="#1a1818"/>
          <path id="Path_183" data-name="Path 183" d="M667.741,386.215H612.45a1.045,1.045,0,1,1,0-2.089h54.244V307.9h-8.67a1.043,1.043,0,1,1,0-2.087h9.717a1.04,1.04,0,0,1,1.045,1.037v78.322a1.044,1.044,0,0,1-1.045,1.042Z" transform="translate(-535.936 -274.759)" fill="#1a1818"/>
          <path id="Path_184" data-name="Path 184" d="M610.62,337.812a1.045,1.045,0,0,1-1.047-1.042V306.85a1.042,1.042,0,0,1,1.047-1.037h9.555a1.043,1.043,0,1,1,0,2.087h-8.512v28.87a1.041,1.041,0,0,1-1.042,1.042Z" transform="translate(-538.542 -274.759)" fill="#1a1818"/>
          <path id="Path_185" data-name="Path 185" d="M606.764,339.35a1.041,1.041,0,0,1-1.045-1.042V305.895a3.781,3.781,0,0,1,3.774-3.779h16.673a1.046,1.046,0,0,1,0,2.092H609.493a1.689,1.689,0,0,0-1.685,1.687v32.413a1.043,1.043,0,0,1-1.045,1.042Z" transform="translate(-544.029 -280.023)" fill="#1a1818"/>
          <path id="Path_186" data-name="Path 186" d="M713.5,344.043H613.685a1.045,1.045,0,0,1,0-2.089H713.5a1.045,1.045,0,1,1,0,2.089Z" transform="translate(-534.175 -223.303)" fill="#1a1818"/>
          <path id="Path_187" data-name="Path 187" d="M639.112,348.392a1.042,1.042,0,0,1-1.04-1.042V333.425a1.045,1.045,0,1,1,2.089,0V347.35a1.045,1.045,0,0,1-1.05,1.042Z" transform="translate(-497.965 -236.937)" fill="#1a1818"/>
          <path id="Path_188" data-name="Path 188" d="M639.117,335.576a1.045,1.045,0,0,1-1.045-1.045v-4.246a1.045,1.045,0,0,1,2.089,0v4.246a1.046,1.046,0,0,1-1.045,1.045Z" transform="translate(-497.965 -241.4)" fill="#1a1818"/>
          <path id="Path_189" data-name="Path 189" d="M639.117,331.162a1.044,1.044,0,0,1-1.045-1.047V328.05a1.045,1.045,0,1,1,2.089,0v2.065a1.045,1.045,0,0,1-1.045,1.047Z" transform="translate(-497.965 -244.587)" fill="#1a1818"/>
          <path id="Path_190" data-name="Path 190" d="M650.518,361.176a1.045,1.045,0,0,1-1.045-1.045V305.895a1.687,1.687,0,0,0-1.687-1.687H631.114a1.046,1.046,0,1,1,0-2.092h16.673a3.783,3.783,0,0,1,3.776,3.779v54.237a1.046,1.046,0,0,1-1.045,1.045Z" transform="translate(-509.367 -280.023)" fill="#1a1818"/>
          <path id="Path_191" data-name="Path 191" d="M631.386,323.807a1.062,1.062,0,0,1-.856-.439l-2.916-4.137a1.047,1.047,0,0,1,1.709-1.21l2.046,2.906,4.312-6.35a1.045,1.045,0,0,1,1.731,1.173l-5.16,7.6a1.048,1.048,0,0,1-.856.458Z" transform="translate(-513.125 -262.934)" fill="#ffbb16"/>
          <path id="Path_192" data-name="Path 192" d="M631.386,329.111a1.052,1.052,0,0,1-.856-.448l-2.916-4.137a1.045,1.045,0,0,1,1.709-1.2l2.046,2.9,4.312-6.345a1.042,1.042,0,0,1,1.449-.281,1.056,1.056,0,0,1,.281,1.457l-5.16,7.6a1.063,1.063,0,0,1-.856.461Z" transform="translate(-513.125 -255.387)" fill="#ffbb16"/>
          <path id="Path_193" data-name="Path 193" d="M631.386,334.409a1.06,1.06,0,0,1-.856-.444l-2.916-4.142a1.045,1.045,0,0,1,1.709-1.2l2.046,2.906,4.312-6.35a1.046,1.046,0,0,1,1.731,1.176l-5.16,7.6a1.051,1.051,0,0,1-.856.461Z" transform="translate(-513.125 -247.841)" fill="#ffbb16"/>
          <path id="Path_194" data-name="Path 194" d="M631.386,339.71a1.058,1.058,0,0,1-.856-.448l-2.916-4.137a1.044,1.044,0,1,1,1.709-1.2l2.046,2.9,4.312-6.343a1.045,1.045,0,1,1,1.731,1.171l-5.16,7.6a1.065,1.065,0,0,1-.856.463Z" transform="translate(-513.125 -240.294)" fill="#ffbb16"/>
          <path id="Path_195" data-name="Path 195" d="M610.62,335.22a1.051,1.051,0,0,1-1.047-1.047v-8.968a1.045,1.045,0,1,1,2.089,0v8.968a1.046,1.046,0,0,1-1.042,1.047Z" transform="translate(-538.542 -248.64)" fill="#fff"/>
          <path id="Path_196" data-name="Path 196" d="M600.365,341.762H629.8a2.1,2.1,0,0,0,2.089-2.094h0a2.1,2.1,0,0,0-2.089-2.089H600.365a2.093,2.093,0,0,0-2.089,2.089h0a2.1,2.1,0,0,0,2.089,2.094Z" transform="translate(-554.626 -229.532)" fill="#1a1818"/>
          <path id="Path_197" data-name="Path 197" d="M598.558,345.341h38.2a2.7,2.7,0,0,1,0,5.264h-38.2a2.7,2.7,0,0,1,0-5.264Z" transform="translate(-557.199 -218.48)" fill="#1a1818"/>
          <path id="Path_198" data-name="Path 198" d="M609.945,320.488c-2.424-.172-4.794-.591-6.627-2.32a31.627,31.627,0,0,1-2.654-3.277,43.565,43.565,0,0,1,10.226-.72l-.945,6.316Z" transform="translate(-551.226 -262.923)" fill="#1a1818"/>
          <path id="Path_199" data-name="Path 199" d="M596.85,321.874a14.621,14.621,0,0,1,7.666-6.937,40.238,40.238,0,0,0,.124,5.689c.114,2.424-.824,4.079-1.386,6.314a23.34,23.34,0,0,0-.836,6.859,16.665,16.665,0,0,0,1.033,3.948.734.734,0,0,0-.019.461c1.815,7,5.012,13.692,5.691,20.927l-1.088,4.92a31.928,31.928,0,0,0-3.294-11.447c-2.906-5.822-7.3-10.859-8.99-17.26-1.134-4.3-1-9.477,1.1-13.474Z" transform="translate(-559.23 -261.769)" fill="#1a1818"/>
          <path id="Path_200" data-name="Path 200" d="M612.659,349.171h-3.376a1.045,1.045,0,1,1,0-2.089h3.376a1.045,1.045,0,0,1,0,2.089Z" transform="translate(-540.443 -216.001)" fill="#1a1818"/>
          <path id="Path_201" data-name="Path 201" d="M608.239,349.171h-1.093a1.045,1.045,0,1,1,0-2.089h1.093a1.045,1.045,0,1,1,0,2.089Z" transform="translate(-543.488 -216.001)" fill="#1a1818"/>
          <path id="Path_202" data-name="Path 202" d="M590.343,336.046a10.078,10.078,0,1,1,10.086-10.078,10.087,10.087,0,0,1-10.086,10.078Zm0-18.069a7.992,7.992,0,1,0,7.994,7.991,8,8,0,0,0-7.994-7.991Z" transform="translate(-580.267 -260.412)" fill="#ffbb16"/>
          <path id="Path_203" data-name="Path 203" d="M586.261,328.161a1.041,1.041,0,0,1-.856-.441l-3.124-4.431a1.046,1.046,0,0,1,1.711-1.2l2.247,3.195,4.678-6.879a1.043,1.043,0,1,1,1.726,1.171l-5.516,8.137a1.074,1.074,0,0,1-.858.453Z" transform="translate(-577.668 -257.493)" fill="#1a1818"/>
          <path id="Path_204" data-name="Path 204" d="M591.8,315.688a1.043,1.043,0,0,1-.764-1.757,65.191,65.191,0,0,1,47.54-20.692,64.386,64.386,0,0,1,28.37,6.508,1.043,1.043,0,0,1-.914,1.876,62.332,62.332,0,0,0-27.456-6.294,63.1,63.1,0,0,0-46.011,20.028,1.038,1.038,0,0,1-.766.332Z" transform="translate(-565.325 -292.662)" fill="#1a1818"/>
          <path id="Path_205" data-name="Path 205" d="M588.106,314.494a1.014,1.014,0,0,1-.514-.136,1.043,1.043,0,0,1-.4-1.42,64.867,64.867,0,0,1,6.813-9.865,1.045,1.045,0,0,1,1.6,1.34,63.065,63.065,0,0,0-6.6,9.547,1.049,1.049,0,0,1-.911.533Z" transform="translate(-570.595 -279.194)" fill="#1a1818"/>
          <path id="Path_206" data-name="Path 206" d="M586.137,317.228a1.01,1.01,0,0,1-.335-.056,1.039,1.039,0,0,1-.652-1.328,64.324,64.324,0,0,1,2.838-6.973,1.043,1.043,0,1,1,1.886.894,62.189,62.189,0,0,0-2.746,6.755,1.05,1.05,0,0,1-.991.708Z" transform="translate(-573.396 -271.259)" fill="#1a1818"/>
          <path id="Path_207" data-name="Path 207" d="M585.325,318.008a.743.743,0,0,1-.218-.029,1.042,1.042,0,0,1-.8-1.239c.23-1.081.492-2.167.778-3.228a1.045,1.045,0,0,1,2.019.543c-.276,1.028-.531,2.08-.756,3.124a1.049,1.049,0,0,1-1.018.829Z" transform="translate(-574.556 -264.893)" fill="#1a1818"/>
          <path id="Path_208" data-name="Path 208" d="M608.4,364.109a1.027,1.027,0,0,1-.642-.221A65.08,65.08,0,0,1,584.3,326.424a1.045,1.045,0,0,1,2.043-.436,62.987,62.987,0,0,0,22.708,36.253,1.046,1.046,0,0,1-.647,1.869Z" transform="translate(-574.557 -247.21)" fill="#1a1818"/>
          <path id="Path_209" data-name="Path 209" d="M638.412,303.871H618.92a1.045,1.045,0,1,1,0-2.089h19.492a1.045,1.045,0,1,1,0,2.089Z" transform="translate(-526.724 -280.499)" fill="#1a1818"/>
          <path id="Path_210" data-name="Path 210" d="M638.412,305.477H618.92a1.043,1.043,0,1,1,0-2.087h19.492a1.043,1.043,0,1,1,0,2.087Z" transform="translate(-526.724 -278.209)" fill="#1a1818"/>
          <path id="Path_211" data-name="Path 211" d="M638.412,307.087H618.92a1.046,1.046,0,1,1,0-2.092h19.492a1.046,1.046,0,1,1,0,2.092Z" transform="translate(-526.724 -275.924)" fill="#1a1818"/>
          <path id="Path_212" data-name="Path 212" d="M636.9,317.338H621.114a3.491,3.491,0,0,1-3.483-3.488V312.9a3.485,3.485,0,0,1,3.483-3.478H636.9a3.484,3.484,0,0,1,3.486,3.478v.948a3.49,3.49,0,0,1-3.486,3.488Zm-15.789-5.827a1.39,1.39,0,0,0-1.386,1.391v.948a1.391,1.391,0,0,0,1.386,1.394H636.9a1.4,1.4,0,0,0,1.4-1.394V312.9a1.4,1.4,0,0,0-1.4-1.391Z" transform="translate(-527.069 -269.618)" fill="#ffbb16"/>
          <path id="Path_213" data-name="Path 213" d="M636.034,322.93H618.163a3.621,3.621,0,0,1-3.616-3.616v-.676a3.619,3.619,0,0,1,3.616-3.616h17.871a3.619,3.619,0,0,1,3.616,3.616v.676a3.621,3.621,0,0,1-3.616,3.616Zm-17.871-5.819a1.53,1.53,0,0,0-1.527,1.527v.676a1.534,1.534,0,0,0,1.527,1.529h17.871a1.531,1.531,0,0,0,1.525-1.529v-.676a1.528,1.528,0,0,0-1.525-1.527Z" transform="translate(-531.46 -261.649)" fill="#1a1818"/>
          <path id="Path_214" data-name="Path 214" d="M636.034,328.231H618.163a3.622,3.622,0,0,1-3.616-3.614v-.681a3.621,3.621,0,0,1,3.616-3.616h17.871a3.621,3.621,0,0,1,3.616,3.616v.681a3.622,3.622,0,0,1-3.616,3.614Zm-17.871-5.822a1.53,1.53,0,0,0-1.527,1.527v.681a1.525,1.525,0,0,0,1.527,1.52h17.871a1.523,1.523,0,0,0,1.525-1.52v-.681a1.528,1.528,0,0,0-1.525-1.527Z" transform="translate(-531.46 -254.105)" fill="#1a1818"/>
          <path id="Path_215" data-name="Path 215" d="M636.034,333.531H618.163a3.618,3.618,0,0,1-3.616-3.611v-.684a3.621,3.621,0,0,1,3.616-3.616h17.871a3.621,3.621,0,0,1,3.616,3.616v.684a3.618,3.618,0,0,1-3.616,3.611Zm-17.871-5.82a1.531,1.531,0,0,0-1.527,1.525v.684a1.528,1.528,0,0,0,1.527,1.52h17.871a1.526,1.526,0,0,0,1.525-1.52v-.684a1.529,1.529,0,0,0-1.525-1.525Z" transform="translate(-531.46 -246.559)" fill="#1a1818"/>
          <path id="Path_216" data-name="Path 216" d="M636.034,338.835H618.163a3.624,3.624,0,0,1-3.616-3.621v-.679a3.623,3.623,0,0,1,3.616-3.616h17.871a3.622,3.622,0,0,1,3.616,3.616v.679a3.623,3.623,0,0,1-3.616,3.621Zm-17.871-5.824a1.531,1.531,0,0,0-1.527,1.525v.679a1.526,1.526,0,0,0,1.527,1.525h17.871a1.524,1.524,0,0,0,1.525-1.525v-.679a1.529,1.529,0,0,0-1.525-1.525Z" transform="translate(-531.46 -239.014)" fill="#ffbb16"/>
          <path id="Path_217" data-name="Path 217" d="M629.981,373.684h-28.5a1.045,1.045,0,0,1-.858-1.639,24.062,24.062,0,0,0,3.449-12.451c0-4.009-1.452-7.463-2.984-11.12a36.445,36.445,0,0,1-3.064-9.925,22.473,22.473,0,0,1,1.782-12.5,52.732,52.732,0,0,1,.318-12.221,1.038,1.038,0,0,1,.691-.819,1.052,1.052,0,0,1,1.054.228l7.7,7.218c6.738.429,14.165,3.723,17.374,5.138.635.284,1.234.553,1.411.6a10.963,10.963,0,0,0,2.23.378c.565.061,1.246.131,2.123.252,3.216.448,3.209,2.884,3.209,4.2v.08a16.2,16.2,0,0,0,.611,2.829,13.943,13.943,0,0,1,.6,2.894,4.215,4.215,0,0,1-1.607,3.238,7.287,7.287,0,0,1-3.258,1.529,1.511,1.511,0,0,0-1.011.7,2.2,2.2,0,0,1-2.77.856,4.9,4.9,0,0,1-2.758-3.078c-2.814-.133-6.573.274-7.31,1.7.017.172.339.788,2.426,2.337.163.116.3.218.4.293,1.1.865,2.257,1.709,3.371,2.528,1.432,1.054,2.923,2.138,4.336,3.3,3.587,2.93,6.052,5.827,6.435,10.41a16.519,16.519,0,0,1-3.316,11.229c-.022.029-.056.085-.1.15-.683.977-1.229,1.668-1.99,1.668Zm-.429-1.971Zm-26.259-.124h26.378a9.194,9.194,0,0,0,.589-.776c.065-.095.119-.17.148-.213a14.373,14.373,0,0,0,2.891-9.794c-.317-3.866-2.407-6.292-5.671-8.958-1.374-1.127-2.836-2.2-4.249-3.236-1.132-.826-2.3-1.68-3.427-2.567-.09-.068-.208-.158-.346-.259-1.425-1.052-4.077-3.006-3.044-4.986,1.762-3.384,9.2-2.836,10.047-2.761a1.051,1.051,0,0,1,.928.819c.124.528.65,1.98,1.631,2.317a1.02,1.02,0,0,0,.25.061,2.769,2.769,0,0,0,.2-.247,3.556,3.556,0,0,1,2.247-1.445,5.218,5.218,0,0,0,2.3-1.074h0a2.16,2.16,0,0,0,.868-1.646,15.464,15.464,0,0,0-.526-2.353,15.714,15.714,0,0,1-.681-3.369v-.087c0-1.43-.07-1.932-1.408-2.121-.851-.114-1.505-.184-2.055-.24a12.814,12.814,0,0,1-2.615-.456c-.286-.085-.739-.284-1.653-.688-3.158-1.4-10.56-4.683-17.015-4.988a1.023,1.023,0,0,1-.664-.279l-6.471-6.072a51.682,51.682,0,0,0-.024,9.988,1.043,1.043,0,0,1-.143.637c-.024.039-2.5,4.4-1.675,11.5a34.368,34.368,0,0,0,2.913,9.363c1.544,3.689,3.144,7.5,3.144,11.93a26.6,26.6,0,0,1-2.87,12Z" transform="translate(-555.241 -264.589)" fill="#1a1818"/>
          <path id="Path_218" data-name="Path 218" d="M630.417,343.42H600.978a3.136,3.136,0,0,1,0-6.273h29.439a3.136,3.136,0,0,1,0,6.273Zm-29.439-4.179a1.045,1.045,0,0,0,0,2.089h29.439a1.045,1.045,0,0,0,0-2.089Z" transform="translate(-555.238 -230.147)" fill="#1a1818"/>
          <path id="Path_219" data-name="Path 219" d="M637.371,352.267h-3.313a1.045,1.045,0,1,1,0-2.089h3.313c.492,0,1.042-.654,1.042-1.588s-.55-1.592-1.042-1.592h-38.2c-.492,0-1.042.654-1.042,1.592s.55,1.588,1.042,1.588h18.367a1.045,1.045,0,1,1,0,2.089H599.172a3.727,3.727,0,0,1,0-7.359h38.2a3.727,3.727,0,0,1,0,7.359Z" transform="translate(-557.813 -219.097)" fill="#1a1818"/>
          <path id="Path_220" data-name="Path 220" d="M616.276,355.591a.964.964,0,0,1-.238-.027,1.046,1.046,0,0,1-.783-1.256h0c.019-.07,1.721-7.834-4.1-13.651a1.048,1.048,0,0,1,0-1.479,1.037,1.037,0,0,1,1.474,0,17.526,17.526,0,0,1,4.656,15.609,1.04,1.04,0,0,1-1.013.8Z" transform="translate(-536.718 -227.69)" fill="#1a1818"/>
          <path id="Path_221" data-name="Path 221" d="M598,355.591a1.042,1.042,0,0,1-1.016-.8,17.53,17.53,0,0,1,4.659-15.609,1.045,1.045,0,0,1,1.476,1.479c-5.817,5.817-4.116,13.58-4.1,13.651a1.043,1.043,0,0,1-.78,1.256,1.024,1.024,0,0,1-.24.027Z" transform="translate(-556.929 -227.69)" fill="#1a1818"/>
          <path id="Path_222" data-name="Path 222" d="M608.644,365.771a1.043,1.043,0,0,1-1.037-.953,30.846,30.846,0,0,0-3.187-11.074c-1.016-2.036-2.252-4.028-3.444-5.95-2.208-3.561-4.5-7.24-5.618-11.5a20.348,20.348,0,0,1,1.18-14.235,15.766,15.766,0,0,1,8.49-7.533,1.048,1.048,0,0,1,.7,1.978,13.587,13.587,0,0,0-7.332,6.525,18.184,18.184,0,0,0-1.016,12.73c1.045,3.958,3.149,7.342,5.374,10.934,1.219,1.961,2.482,4,3.539,6.118a33.009,33.009,0,0,1,3.4,11.823,1.052,1.052,0,0,1-.952,1.137l-.095,0Z" transform="translate(-559.846 -262.441)" fill="#1a1818" stroke="#1a1818" stroke-miterlimit="10" stroke-width="1"/>
          <path id="Path_223" data-name="Path 223" d="M610.728,322.149c-.056,0-.107-.007-.16-.012a1.054,1.054,0,0,1-.882-1.19l.781-5.155a39.026,39.026,0,0,0-9.05.8,1.045,1.045,0,1,1-.5-2.029,43.33,43.33,0,0,1,10.817-.819,1.033,1.033,0,0,1,.754.385,1.052,1.052,0,0,1,.221.81l-.948,6.326a1.048,1.048,0,0,1-1.03.887Z" transform="translate(-552.005 -263.54)" fill="#1a1818"/>
          <path id="Path_224" data-name="Path 224" d="M620.177,302.261a1.048,1.048,0,0,1-.184-2.077l4.433-.8-2.5-4.191a1.045,1.045,0,1,1,1.8-1.069l3.27,5.487a1.047,1.047,0,0,1-.713,1.561l-5.921,1.069a1.109,1.109,0,0,1-.184.017Z" transform="translate(-524.927 -292.125)" fill="#1a1818"/>
        </g>
      </g>
    </g>
    <g id="Rectangle_1574" data-name="Rectangle 1574" transform="translate(1420 1580)" fill="none" stroke="#707070" stroke-width="1">
      <rect width="313" height="334" stroke="none"/>
      <rect x="0.5" y="0.5" width="312" height="333" fill="none"/>
    </g>
  </g>
</svg>
