<svg xmlns="http://www.w3.org/2000/svg" width="11.338" height="26.47" viewBox="0 0 11.338 26.47">
  <g id="Group_6" data-name="Group 6" transform="translate(0 0)" opacity="0.4">
    <path id="Path_364" data-name="Path 364" d="M3.564,1.266c-.168-.026-1.893-.077-2.1-.077a2.373,2.373,0,0,0-.916.182A1.466,1.466,0,0,0-.095,1.9a2.622,2.622,0,0,0-.369.942A7.126,7.126,0,0,0-.581,4.252V5.86h3.2a.985.985,0,0,1,.155.018h-.34V9.812h.4a.522.522,0,0,1-.213.047h-3.2v13.85H-5.5V9.858H-7.691a.751.751,0,0,1-.083,0V5.869a.382.382,0,0,1,.105-.009H-5.5V4.392a12.153,12.153,0,0,1,.351-3.126A5.832,5.832,0,0,1-4.045-.97,4.9,4.9,0,0,1-2.119-2.308,7.7,7.7,0,0,1,.637-2.762c.489,0,2.494.083,2.927.158Z" transform="translate(7.774 2.762)" fill="#fff" fill-rule="evenodd"/>
  </g>
</svg>
