<svg xmlns="http://www.w3.org/2000/svg" width="313" height="334" viewBox="0 0 313 334">
  <g id="Group_1561" data-name="Group 1561" transform="translate(-1420 -1202)">
    <text id="Full_services_branding_corporate_gifts_and_awards" data-name="Full services branding,
corporate gifts and awards" transform="translate(1576.859 1446)" fill="#1a1818" font-size="18" font-family="Helvetica-Bold, Helvetica" font-weight="700"><tspan x="-98.029" y="0">Full services branding,</tspan><tspan x="-115.027" y="18">corporate gifts and awards</tspan></text>
    <g id="Group_14" data-name="Group 14" transform="translate(1524.577 1273.442)">
      <path id="Path_143" data-name="Path 143" d="M508.2,305.982a3.477,3.477,0,1,1,3.48-3.477,3.482,3.482,0,0,1-3.48,3.477Zm-9.917,35.146a6.3,6.3,0,0,0-.012,12.054,43.405,43.405,0,0,1-21.286,31.44,1.417,1.417,0,0,0-.708,1.231v3.692h-8.126V371.53h5.075a1.41,1.41,0,0,0,1.412-1.412v-5.953a1.413,1.413,0,0,0-1.412-1.412h-5.76c-.365-1.629-1.262-8.572,8-14.4a1.429,1.429,0,0,0,.625-.887,1.411,1.411,0,0,0-.186-1.066L456.666,316.2l-.012,0a1.411,1.411,0,0,0-1.181-.646,1.427,1.427,0,0,0-1.185.639l-.007.012L435.041,346.4a1.444,1.444,0,0,0-.188,1.066,1.427,1.427,0,0,0,.63.887c9.261,5.831,8.36,12.774,8,14.4h-5.758a1.416,1.416,0,0,0-1.417,1.412v5.953a1.413,1.413,0,0,0,1.417,1.412h5.068v18.014h-8.121v-3.692a1.427,1.427,0,0,0-.708-1.231,43.384,43.384,0,0,1-21.289-31.44,6.3,6.3,0,0,0-.01-12.054,43.134,43.134,0,0,1,32.415-35.947v6.306a1.412,1.412,0,0,0,1.412,1.414h17.964a1.415,1.415,0,0,0,1.417-1.414V305.18a43.186,43.186,0,0,1,32.415,35.947Zm5.316,6.029a3.477,3.477,0,1,1-3.48-3.48,3.482,3.482,0,0,1,3.48,3.48ZM454.061,371.53v18.014h-8.441V371.53Zm11.269,18.014h-8.445V371.53h8.445v18.014Zm6.483-23.967v3.129H439.136v-3.129ZM454.061,342.94a5.877,5.877,0,1,0,2.824,0V321.811l15.894,24.936c-8.717,6.079-8.631,13.2-8.183,16.006H446.351c.448-2.8.539-9.927-8.181-16.006l15.892-24.936V342.94Zm1.412,2.65a3.054,3.054,0,1,1-3.051,3.058,3.058,3.058,0,0,1,3.051-3.058Zm25.272,52.034H430.2v-5.257h50.541v5.257ZM476.28,404H434.671v-3.551H476.28V404Zm4.465,8.081H430.2v-5.254h50.541v5.254Zm-25.272,9.993a8.582,8.582,0,0,1-8.45-7.167h16.9a8.581,8.581,0,0,1-8.452,7.167Zm-48.125-74.919a3.476,3.476,0,1,1,3.475,3.477,3.483,3.483,0,0,1-3.475-3.477Zm-4.6-41.175a3.477,3.477,0,1,1,3.475-3.477,3.483,3.483,0,0,1-3.475,3.477Zm45.158-11.05h15.138v15.143H447.9V294.932Zm60.3,1.269a6.307,6.307,0,0,0-6.137,4.892h-36.2V293.52a1.416,1.416,0,0,0-1.417-1.412H446.491a1.413,1.413,0,0,0-1.412,1.412v7.572h-36.2a6.3,6.3,0,1,0,0,2.826h30.679a45.968,45.968,0,0,0-29.725,37.018,6.293,6.293,0,0,0,.012,12.436,46.243,46.243,0,0,0,21.995,33.286v2.886H428.79a1.412,1.412,0,0,0-1.412,1.412v8.08a1.414,1.414,0,0,0,1.412,1.414h3.053V404H428.79a1.412,1.412,0,0,0-1.412,1.414v8.078a1.412,1.412,0,0,0,1.412,1.414h15.379a11.394,11.394,0,0,0,22.615,0h15.374a1.411,1.411,0,0,0,1.412-1.414v-8.078A1.411,1.411,0,0,0,482.157,404h-3.05v-3.551h3.05a1.412,1.412,0,0,0,1.412-1.414v-8.08a1.41,1.41,0,0,0-1.412-1.412h-3.05v-2.886a46.242,46.242,0,0,0,22-33.286,6.294,6.294,0,0,0,.012-12.436,46.015,46.015,0,0,0-29.732-37.018h30.683A6.3,6.3,0,1,0,508.2,296.2Z" transform="translate(-396.439 -292.108)" fill="rgba(0,0,0,0)" stroke="#1a1818" stroke-miterlimit="10" stroke-width="1.5"/>
      <path id="Path_144" data-name="Path 144" d="M418.019,293.292h15.137v15.142H418.019V293.292Z" transform="translate(-366.549 -290.468)" fill="#ffbb16" stroke="#1a1818" stroke-width="1.5"/>
    </g>
    <g id="Rectangle_1572" data-name="Rectangle 1572" transform="translate(1420 1202)" fill="none" stroke="#707070" stroke-width="1">
      <rect width="313" height="334" stroke="none"/>
      <rect x="0.5" y="0.5" width="312" height="333" fill="none"/>
    </g>
  </g>
</svg>
