<svg xmlns="http://www.w3.org/2000/svg" width="313" height="334" viewBox="0 0 313 334">
  <g id="Group_1560" data-name="Group 1560" transform="translate(-1072 -1202)">
    <text id="Storytelling_-_Infographics_Explainer_Videos" data-name="Storytelling - Infographics,
Explainer Videos" transform="translate(1228.015 1459)" fill="#1a1818" font-size="18" font-family="Helvetica-Bold, Helvetica" font-weight="700"><tspan x="-114.007" y="0">Storytelling - Infographics,</tspan><tspan x="-72.369" y="18">Explainer Videos</tspan></text>
    <g id="Group_7" data-name="Group 7" transform="translate(747.124 1107.142)">
      <path id="Path_26" data-name="Path 26" d="M418.975,195.243a13.772,13.772,0,0,1,3.714-21.281l-4-7.363a22.167,22.167,0,0,0-5.986,34.218l6.268-5.573Z" transform="translate(44.692 7.832)" fill="#ffbb16"/>
      <path id="Path_27" data-name="Path 27" d="M466.9,178.479a33.566,33.566,0,1,0,25.751,39.881A33.569,33.569,0,0,0,466.9,178.479Zm17.324,38.063a24.947,24.947,0,1,1-19.141-29.636,24.949,24.949,0,0,1,19.141,29.636Z" transform="translate(72.087 23.73)" fill="#ffbb16"/>
      <path id="Path_28" data-name="Path 28" d="M460.657,246.769a35.036,35.036,0,0,1-7.385-.792,34.56,34.56,0,1,1,7.385.792Zm-.134-67.153a32.378,32.378,0,1,0,31.713,39.2h0A32.382,32.382,0,0,0,467.4,180.35a32.844,32.844,0,0,0-6.88-.734Z" transform="translate(71.445 23.025)" fill="#1a1818"/>
      <path id="Path_29" data-name="Path 29" d="M455.465,233.055a26.127,26.127,0,1,1,10.094-50.244,1.193,1.193,0,1,1-.921,2.2,23.742,23.742,0,1,0,11.685,33.333,1.194,1.194,0,0,1,2.094,1.149,26.162,26.162,0,0,1-22.953,13.561Z" transform="translate(76.545 28.101)" fill="#1a1818"/>
      <path id="Path_30" data-name="Path 30" d="M449.837,207.9a1.143,1.143,0,0,1-.571-.153,1.19,1.19,0,0,1-.474-1.62,23.49,23.49,0,0,0,2.59-15.4,1.192,1.192,0,1,1,2.349-.4,25.833,25.833,0,0,1-2.845,16.95,1.2,1.2,0,0,1-1.049.624Z" transform="translate(104.076 40.324)" fill="#fff"/>
      <path id="Path_31" data-name="Path 31" d="M452.492,193.3a1.206,1.206,0,0,1-1.11-.753,23.762,23.762,0,0,0-3.428-5.937,1.191,1.191,0,1,1,1.866-1.482,26.047,26.047,0,0,1,3.78,6.535,1.188,1.188,0,0,1-.663,1.55,1.257,1.257,0,0,1-.445.087Z" transform="translate(102.715 33.672)" fill="#1a1818"/>
      <path id="Path_32" data-name="Path 32" d="M448.467,186.358a1.181,1.181,0,0,1-.765-.279c-.535-.442-1.1-.875-1.671-1.275a1.193,1.193,0,1,1,1.363-1.958c.636.442,1.254.918,1.837,1.407a1.193,1.193,0,0,1-.763,2.106Z" transform="translate(99.606 30.751)" fill="#1a1818"/>
      <path id="Path_33" data-name="Path 33" d="M483.776,251.894a8.534,8.534,0,0,1-6.36-2.825l-24.345-26.985A8.563,8.563,0,0,1,453.693,210l4.2-3.792a8.562,8.562,0,0,1,12.081.624l24.349,26.99a8.574,8.574,0,0,1-.622,12.089l-4.2,3.787a8.529,8.529,0,0,1-5.726,2.2Zm-20.156-45.5a6.147,6.147,0,0,0-4.13,1.586l-4.2,3.787a6.178,6.178,0,0,0-.444,8.719l24.347,26.988a6.169,6.169,0,0,0,8.712.449l4.205-3.785v-.007a6.181,6.181,0,0,0,.449-8.707L468.2,208.43a6.134,6.134,0,0,0-4.584-2.038Z" transform="translate(107.255 61.301)" fill="#1a1818"/>
      <path id="Path_34" data-name="Path 34" d="M475.536,228.85a1.186,1.186,0,0,1-.889-.4l-13.558-15.033a1.191,1.191,0,1,1,1.769-1.6l13.566,15.033a1.192,1.192,0,0,1-.09,1.684,1.164,1.164,0,0,1-.8.309Z" transform="translate(121.423 71.914)" fill="#1a1818"/>
      <path id="Path_35" data-name="Path 35" d="M463.24,215.221a1.179,1.179,0,0,1-.882-.4l-4.074-4.509a1.2,1.2,0,0,1,1.773-1.6l4.074,4.514a1.2,1.2,0,0,1-.09,1.686,1.22,1.22,0,0,1-.8.309Z" transform="translate(117.416 67.473)" fill="#1a1818"/>
      <path id="Path_36" data-name="Path 36" d="M458.62,210.1a1.2,1.2,0,0,1-.884-.394l-1.086-1.2a1.194,1.194,0,1,1,1.771-1.6l1.088,1.2a1.2,1.2,0,0,1-.889,1.995Z" transform="translate(115.078 64.878)" fill="#1a1818"/>
      <path id="Path_37" data-name="Path 37" d="M457.783,215.3a1.192,1.192,0,0,1-.887-.394l-9.156-10.15a1.193,1.193,0,0,1,1.776-1.594l9.151,10.145a1.193,1.193,0,0,1-.884,1.992Z" transform="translate(102.347 59.534)" fill="#1a1818"/>
      <path id="Path_38" data-name="Path 38" d="M460.845,212.542a1.19,1.19,0,0,1-.887-.4L450.8,202a1.192,1.192,0,0,1,1.771-1.6l9.151,10.145a1.194,1.194,0,0,1-.879,1.995Z" transform="translate(106.721 55.589)" fill="#1a1818"/>
      <path id="Path_39" data-name="Path 39" d="M456.44,188.4a1.2,1.2,0,0,1-1.2-1.2V173.84a1.014,1.014,0,0,0-1-1.02H432.982a1.193,1.193,0,0,1,0-2.386h21.259a3.4,3.4,0,0,1,3.394,3.406V187.2a1.2,1.2,0,0,1-1.2,1.2Z" transform="translate(79.986 13.315)" fill="#1a1818"/>
      <path id="Path_40" data-name="Path 40" d="M391.211,176.9a1.193,1.193,0,0,1-1.19-1.193V173.84a3.4,3.4,0,0,1,3.387-3.406h21.257a1.193,1.193,0,1,1,0,2.386H393.408a1.018,1.018,0,0,0-1.008,1.02V175.7a1.192,1.192,0,0,1-1.188,1.193Z" transform="translate(20.28 13.315)" fill="#1a1818"/>
      <path id="Path_41" data-name="Path 41" d="M391.211,180.979a1.19,1.19,0,0,1-1.19-1.2v-5.046a1.189,1.189,0,1,1,2.378,0v5.046a1.19,1.19,0,0,1-1.188,1.2Z" transform="translate(20.28 17.761)" fill="#1a1818"/>
      <path id="Path_42" data-name="Path 42" d="M391.211,241.76a1.191,1.191,0,0,1-1.19-1.19V178.254a1.189,1.189,0,0,1,2.378,0V240.57a1.19,1.19,0,0,1-1.188,1.19Z" transform="translate(20.28 22.794)" fill="#1a1818"/>
      <path id="Path_43" data-name="Path 43" d="M404.413,214.88H393.408a3.4,3.4,0,0,1-3.387-3.4v-5.9a1.189,1.189,0,1,1,2.378,0v5.9a1.017,1.017,0,0,0,1.008,1.015h11.005a1.194,1.194,0,0,1,0,2.388Z" transform="translate(20.28 61.84)" fill="#1a1818"/>
      <path id="Path_44" data-name="Path 44" d="M403.925,210.109h-5.8a1.194,1.194,0,0,1,0-2.388h5.8a1.194,1.194,0,1,1,0,2.388Z" transform="translate(30.171 66.611)" fill="#1a1818"/>
      <path id="Path_45" data-name="Path 45" d="M404.53,210.109h-2.408a1.194,1.194,0,1,1,0-2.388h2.408a1.194,1.194,0,1,1,0,2.388Z" transform="translate(35.869 66.611)" fill="#1a1818"/>
      <path id="Path_46" data-name="Path 46" d="M494.7,214.244H404.685a1.194,1.194,0,1,1,0-2.388H494.7a1.012,1.012,0,0,0,1-1.015v-4.815a1.2,1.2,0,1,1,2.391,0v4.815a3.405,3.405,0,0,1-3.394,3.4Z" transform="translate(39.532 62.476)" fill="#1a1818"/>
      <path id="Path_47" data-name="Path 47" d="M442.641,231.9a1.2,1.2,0,0,1-1.2-1.19v-48.5a1.2,1.2,0,0,1,2.391,0v48.5a1.2,1.2,0,0,1-1.2,1.19Z" transform="translate(93.785 28.446)" fill="#1a1818"/>
      <path id="Path_48" data-name="Path 48" d="M447.35,228.081H434.984a1.19,1.19,0,1,1,0-2.381h11.173V182.164a1.192,1.192,0,1,1,2.383,0v44.727a1.185,1.185,0,0,1-1.19,1.19Z" transform="translate(82.841 28.376)" fill="#1a1818"/>
      <path id="Path_49" data-name="Path 49" d="M450.2,183.278a1.194,1.194,0,0,1-1.193-1.19v-5.6H432.982a1.192,1.192,0,0,1,0-2.383H450.2a1.185,1.185,0,0,1,1.19,1.193v6.795a1.188,1.188,0,0,1-1.19,1.19Z" transform="translate(79.986 18.555)" fill="#1a1818"/>
      <path id="Path_50" data-name="Path 50" d="M481.146,237.9h-87.37a1.188,1.188,0,0,1-1.19-1.19V175.293a1.188,1.188,0,0,1,1.19-1.193H411a1.192,1.192,0,1,1,0,2.383H394.969v59.039h86.177a1.19,1.19,0,1,1,0,2.381Z" transform="translate(23.946 18.555)" fill="#1a1818"/>
      <path id="Path_51" data-name="Path 51" d="M433.243,222.472H412.7a1.194,1.194,0,0,1-1.193-1.19v-12.37a1.193,1.193,0,0,1,1.193-1.19h20.545a1.192,1.192,0,0,1,1.19,1.19v12.37a1.194,1.194,0,0,1-1.19,1.19Zm-19.355-2.386h18.157v-9.977H413.888v9.977Z" transform="translate(50.988 66.611)" fill="#1a1818"/>
      <path id="Path_52" data-name="Path 52" d="M452.01,220.578H409.338a3.227,3.227,0,0,1-3.224-3.226v-1.314a3.227,3.227,0,0,1,3.224-3.226H452.01a3.227,3.227,0,0,1,3.224,3.226v1.314a3.227,3.227,0,0,1-3.224,3.226ZM409.338,215.2a.84.84,0,0,0-.836.841v1.314a.847.847,0,0,0,.836.838H452.01a.849.849,0,0,0,.838-.838v-1.314a.84.84,0,0,0-.838-.841Z" transform="translate(43.283 73.887)" fill="#1a1818"/>
      <path id="Path_53" data-name="Path 53" d="M418.88,211.241a4.532,4.532,0,1,1,4.516-4.531,4.527,4.527,0,0,1-4.516,4.531Zm0-6.678a2.146,2.146,0,1,0,2.128,2.148,2.137,2.137,0,0,0-2.128-2.148Z" transform="translate(55.078 58.687)" fill="#fff"/>
      <path id="Path_54" data-name="Path 54" d="M432.982,202.612a1.193,1.193,0,0,1-1.19-1.193V166.194a1.192,1.192,0,1,1,2.383,0V201.42a1.193,1.193,0,0,1-1.193,1.193Z" transform="translate(79.986 5.549)" fill="#1a1818"/>
      <path id="Path_55" data-name="Path 55" d="M400.865,201.278a1.189,1.189,0,0,1-1.19-1.19V170.846a1.193,1.193,0,1,1,2.386,0v29.242a1.19,1.19,0,0,1-1.2,1.19Z" transform="translate(34.079 12.191)" fill="#1a1818"/>
      <path id="Path_56" data-name="Path 56" d="M400.865,171.072a1.194,1.194,0,0,1-1.19-1.193v-3.525a1.193,1.193,0,0,1,2.386,0v3.525a1.2,1.2,0,0,1-1.2,1.193Z" transform="translate(34.079 5.777)" fill="#1a1818"/>
      <path id="Path_57" data-name="Path 57" d="M400.865,214.728a1.191,1.191,0,0,1-1.19-1.19v-22.11a1.193,1.193,0,1,1,2.386,0v22.11a1.192,1.192,0,0,1-1.2,1.19Z" transform="translate(34.079 41.615)" fill="#fff"/>
      <path id="Path_58" data-name="Path 58" d="M432.982,218.451a1.192,1.192,0,0,1-1.19-1.2V185.831a1.192,1.192,0,0,1,2.383,0v31.424a1.192,1.192,0,0,1-1.193,1.2Z" transform="translate(79.986 33.622)" fill="#1a1818"/>
      <path id="Path_59" data-name="Path 59" d="M412.418,173.324H392.786a1.193,1.193,0,0,1-1.193-1.193,11.01,11.01,0,1,1,22.02,0,1.2,1.2,0,0,1-1.2,1.193Zm-18.359-2.386h17.088a8.627,8.627,0,0,0-17.088,0Z" transform="translate(22.527)" fill="#1a1818"/>
      <path id="Path_60" data-name="Path 60" d="M484.667,173.324a1.193,1.193,0,0,1-1.19-1.193,8.634,8.634,0,0,0-8.629-8.627H396.826a1.193,1.193,0,1,1,0-2.386h78.022a11.022,11.022,0,0,1,11.012,11.012,1.193,1.193,0,0,1-1.193,1.193Z" transform="translate(28.301)" fill="#1a1818"/>
      <path id="Path_61" data-name="Path 61" d="M400.865,170.513a1.191,1.191,0,0,1-1.19-1.19,1.219,1.219,0,0,1,1.19-1.224,1.167,1.167,0,0,1,1.2,1.161v.063a1.192,1.192,0,0,1-1.2,1.19Z" transform="translate(34.079 9.976)" fill="#1a1818"/>
      <path id="Path_62" data-name="Path 62" d="M464.766,190.651h-2.247a2.385,2.385,0,0,1-2.381-2.381v-1.049l-.741.741a2.392,2.392,0,0,1-3.372,0l-1.584-1.591a2.384,2.384,0,0,1,0-3.367l.746-.741h-1.054a2.384,2.384,0,0,1-2.383-2.381v-2.25a2.387,2.387,0,0,1,2.383-2.381h1.054l-.746-.739a2.384,2.384,0,0,1,0-3.367l1.584-1.586a2.381,2.381,0,0,1,3.372,0l.741.736v-1.047a2.383,2.383,0,0,1,2.381-2.381h2.247a2.381,2.381,0,0,1,2.378,2.381V170.3l.746-.736a2.378,2.378,0,0,1,3.367,0l1.586,1.586a2.384,2.384,0,0,1,0,3.367l-.743.739h1.052a2.385,2.385,0,0,1,2.381,2.381v2.25a2.382,2.382,0,0,1-2.381,2.381H472.1l.743.741a2.384,2.384,0,0,1,0,3.367l-1.586,1.589a2.384,2.384,0,0,1-3.367,0l-.746-.741v1.049a2.382,2.382,0,0,1-2.378,2.381Zm-4.5-6.443a1.162,1.162,0,0,1,.542.129,5.975,5.975,0,0,0,.889.372,1.2,1.2,0,0,1,.826,1.137v2.424l2.24,0,0-2.422a1.19,1.19,0,0,1,.821-1.137,5.687,5.687,0,0,0,.891-.372,1.194,1.194,0,0,1,1.382.219l1.72,1.72,1.582-1.591-1.713-1.71a1.18,1.18,0,0,1-.224-1.385,6.68,6.68,0,0,0,.374-.884,1.182,1.182,0,0,1,1.135-.826h2.422l0-2.237H470.73a1.187,1.187,0,0,1-1.135-.821,6.736,6.736,0,0,0-.374-.889,1.185,1.185,0,0,1,.224-1.387l1.713-1.718-1.591-1.582-1.71,1.718a1.194,1.194,0,0,1-1.382.219,5.93,5.93,0,0,0-.891-.372,1.191,1.191,0,0,1-.821-1.132v-2.427l-2.242.007.007,2.42a1.2,1.2,0,0,1-.826,1.132,6.245,6.245,0,0,0-.889.372,1.2,1.2,0,0,1-1.382-.219l-1.72-1.718-1.582,1.586,1.715,1.713a1.192,1.192,0,0,1,.221,1.387,5.859,5.859,0,0,0-.372.889,1.2,1.2,0,0,1-1.137.821h-2.422l0,2.242,2.417,0a1.19,1.19,0,0,1,1.137.826,5.811,5.811,0,0,0,.372.884,1.187,1.187,0,0,1-.221,1.385l-1.715,1.72,1.589,1.582,1.713-1.72a1.188,1.188,0,0,1,.841-.347Zm12.883-6.567h0Zm-9.511,5.413a4.3,4.3,0,1,1,4.3-4.3,4.3,4.3,0,0,1-4.3,4.3Zm0-6.2a1.911,1.911,0,1,0,1.912,1.91,1.915,1.915,0,0,0-1.912-1.91Z" transform="translate(108.512 8.22)" fill="#1a1818"/>
      <path id="Path_63" data-name="Path 63" d="M476.872,217.413H403.267a1.194,1.194,0,0,1,0-2.388h73.605a1.194,1.194,0,1,1,0,2.388Z" transform="translate(37.512 77.052)" fill="#1a1818"/>
      <path id="Path_64" data-name="Path 64" d="M405.371,217.413h-6.365a1.194,1.194,0,0,1,0-2.388h6.365a1.194,1.194,0,0,1,0,2.388Z" transform="translate(31.422 77.052)" fill="#1a1818"/>
      <path id="Path_65" data-name="Path 65" d="M399.017,217.413h-2.723a1.194,1.194,0,0,1,0-2.388h2.723a1.194,1.194,0,0,1,0,2.388Z" transform="translate(27.544 77.052)" fill="#1a1818"/>
      <path id="Path_66" data-name="Path 66" d="M439,217.413h-3.87a1.194,1.194,0,0,1,0-2.388H439a1.194,1.194,0,1,1,0,2.388Z" transform="translate(83.049 77.052)" fill="#1a1818"/>
      <path id="Path_67" data-name="Path 67" d="M439.938,217.413h-1.654a1.194,1.194,0,0,1,0-2.388h1.654a1.194,1.194,0,0,1,0,2.388Z" transform="translate(87.563 77.052)" fill="#1a1818"/>
      <path id="Path_68" data-name="Path 68" d="M440.983,217.413h-.423a1.194,1.194,0,0,1,0-2.388h.423a1.194,1.194,0,1,1,0,2.388Z" transform="translate(90.815 77.052)" fill="#1a1818"/>
      <path id="Path_69" data-name="Path 69" d="M434.732,205.2a1.171,1.171,0,0,1-.833-.343l-6-5.855a1.2,1.2,0,0,1-.357-.838,1.162,1.162,0,0,1,.34-.848,12.589,12.589,0,0,0-9.006-21.393,12.971,12.971,0,0,0-1.888.156,1.19,1.19,0,0,1-1.36-1l-1.254-8.3a1.178,1.178,0,0,1,1-1.353,22.874,22.874,0,0,1,3.5-.265,23.35,23.35,0,0,1,16.7,39.674,1.21,1.21,0,0,1-.853.362Zm-4.341-7.1,4.3,4.193a20.963,20.963,0,0,0-15.808-34.742c-.649,0-1.3.032-1.961.09l.9,5.945c.364-.029.714-.046,1.057-.046a14.976,14.976,0,0,1,11.51,24.561Z" transform="translate(55.077 5.777)" fill="#1a1818"/>
      <path id="Path_70" data-name="Path 70" d="M423.635,191.883a23.33,23.33,0,0,1-12.021-3.326,1.188,1.188,0,0,1-.4-1.633l4.317-7.2a1.175,1.175,0,0,1,.731-.544,1.19,1.19,0,0,1,.906.136,12.492,12.492,0,0,0,12.147.44,1.2,1.2,0,0,1,1.6.527l3.783,7.485a1.194,1.194,0,0,1-.525,1.6,23.1,23.1,0,0,1-10.536,2.512Zm-9.751-4.786a20.976,20.976,0,0,0,9.751,2.4,20.748,20.748,0,0,0,8.379-1.742l-2.709-5.366a15.048,15.048,0,0,1-12.324-.449l-3.1,5.16Z" transform="translate(50.323 25.768)" fill="#1a1818"/>
      <path id="Path_71" data-name="Path 71" d="M413.409,202.867a1.217,1.217,0,0,1-.889-.4,23.356,23.356,0,0,1,6.309-36.059,1.193,1.193,0,0,1,1.615.479l3.991,7.363a1.181,1.181,0,0,1-.479,1.616,12.58,12.58,0,0,0-3.389,19.44,1.187,1.187,0,0,1-.1,1.681l-6.268,5.575a1.178,1.178,0,0,1-.794.306Zm5.524-33.761a20.964,20.964,0,0,0-5.4,30.855l4.494-3.994a14.957,14.957,0,0,1,3.763-21.59l-2.859-5.272Z" transform="translate(43.99 7.354)" fill="#fff"/>
      <path id="Path_72" data-name="Path 72" d="M389.66,213.5a8.443,8.443,0,1,1,8.447-8.442,8.453,8.453,0,0,1-8.447,8.442Zm0-14.5a6.058,6.058,0,1,0,6.054,6.059A6.064,6.064,0,0,0,389.66,199Z" transform="translate(7.704 50.737)" fill="#1a1818"/>
      <path id="Path_73" data-name="Path 73" d="M406.972,204.833a11.572,11.572,0,1,1,11.576-11.576,11.584,11.584,0,0,1-11.576,11.576Zm0-20.764a9.189,9.189,0,1,0,9.188,9.188,9.2,9.2,0,0,0-9.188-9.188Z" transform="translate(27.973 29.401)" fill="#1a1818"/>
      <path id="Path_74" data-name="Path 74" d="M415.854,203.564A6.556,6.556,0,1,1,422.406,197a6.569,6.569,0,0,1-6.552,6.559Zm0-10.728A4.169,4.169,0,1,0,420.023,197a4.181,4.181,0,0,0-4.169-4.169Z" transform="translate(47.832 41.929)" fill="#1a1818"/>
      <path id="Path_75" data-name="Path 75" d="M426.071,194.371a4.986,4.986,0,1,1,4.983-4.988,4.991,4.991,0,0,1-4.983,4.988Zm0-7.585a2.6,2.6,0,1,0,2.6,2.6,2.595,2.595,0,0,0-2.6-2.6Z" transform="translate(64.686 33.274)" fill="#1a1818"/>
      <path id="Path_76" data-name="Path 76" d="M414.591,200.714a1.194,1.194,0,0,1-.62-2.213l19.238-11.566a1.192,1.192,0,1,1,1.229,2.043L415.2,200.542a1.17,1.17,0,0,1-.612.172Z" transform="translate(53.689 36.655)" fill="#1a1818"/>
      <path id="Path_77" data-name="Path 77" d="M419.628,198.973a1.211,1.211,0,0,1-.586-.153L404,190.3a1.193,1.193,0,1,1,1.173-2.077l15.048,8.52a1.2,1.2,0,0,1-.59,2.235Z" transform="translate(39.391 38.516)" fill="#1a1818"/>
      <path id="Path_78" data-name="Path 78" d="M387.635,212.651a1.192,1.192,0,0,1-.79-2.087l24.367-21.48a1.193,1.193,0,1,1,1.577,1.79l-24.364,21.48a1.176,1.176,0,0,1-.789.3Z" transform="translate(15.164 39.545)" fill="#1a1818"/>
      <path id="Path_79" data-name="Path 79" d="M390.507,202.234a3.642,3.642,0,1,1-3.637-3.642,3.643,3.643,0,0,1,3.637,3.642Z" transform="translate(10.564 53.563)" fill="#ffbb16"/>
      <path id="Path_80" data-name="Path 80" d="M381.746,200.316a5.909,5.909,0,1,1,5.906-5.908,5.919,5.919,0,0,1-5.906,5.908Zm0-9.433a3.523,3.523,0,1,0,3.52,3.525,3.527,3.527,0,0,0-3.52-3.525Z" transform="translate(0 39.133)" fill="#1a1818"/>
      <path id="Path_81" data-name="Path 81" d="M382.043,192.325a2.367,2.367,0,1,1-2.364-2.371,2.364,2.364,0,0,1,2.364,2.371Z" transform="translate(2.108 41.216)" fill="#ffbb16"/>
      <path id="Path_82" data-name="Path 82" d="M410.36,190.225a6.418,6.418,0,1,1-6.418-6.416,6.418,6.418,0,0,1,6.418,6.416Z" transform="translate(31.003 32.432)" fill="#ffbb16"/>
      <path id="Path_83" data-name="Path 83" d="M415.747,194.539a2.363,2.363,0,1,1-2.359-2.361,2.361,2.361,0,0,1,2.359,2.361Z" transform="translate(50.298 44.395)" fill="#ffbb16"/>
      <path id="Path_84" data-name="Path 84" d="M425.194,187.21a1.294,1.294,0,1,1-1.295-1.292,1.294,1.294,0,0,1,1.295,1.292Z" transform="translate(66.857 35.447)" fill="#fff"/>
      <path id="Path_85" data-name="Path 85" d="M388.854,206.862a1.184,1.184,0,0,1-.974-.508L379.12,193.9a1.192,1.192,0,1,1,1.951-1.37l8.758,12.453a1.19,1.19,0,0,1-.292,1.662,1.169,1.169,0,0,1-.683.219Z" transform="translate(4.388 44.165)" fill="#1a1818"/>
      <path id="Path_86" data-name="Path 86" d="M452.84,206.788a1.136,1.136,0,0,1-.255-.027,1.191,1.191,0,0,1-.913-1.421,19.55,19.55,0,0,0-5.78-18.495,1.2,1.2,0,0,1,1.642-1.739A21.926,21.926,0,0,1,454,205.845a1.193,1.193,0,0,1-1.159.943Z" transform="translate(99.608 33.823)" fill="#1a1818"/>
      <path id="Path_87" data-name="Path 87" d="M447.314,187.111a1.153,1.153,0,0,1-.627-.177,19.569,19.569,0,0,0-3.124-1.569,1.194,1.194,0,0,1-.666-1.548,1.182,1.182,0,0,1,1.545-.668,21.535,21.535,0,0,1,3.5,1.756,1.192,1.192,0,0,1-.629,2.206Z" transform="translate(95.74 31.366)" fill="#1a1818"/>
    </g>
    <g id="Rectangle_1571" data-name="Rectangle 1571" transform="translate(1072 1202)" fill="none" stroke="#707070" stroke-width="1">
      <rect width="313" height="334" stroke="none"/>
      <rect x="0.5" y="0.5" width="312" height="333" fill="none"/>
    </g>
  </g>
</svg>
