<svg xmlns="http://www.w3.org/2000/svg" width="29.337" height="29.436" viewBox="0 0 29.337 29.436">
  <g id="Group_1490" data-name="Group 1490" transform="translate(0 0)" opacity="0.4">
    <path id="Path_4" data-name="Path 4" d="M9.383,0C12.09,0,14.707.013,17.326,0c.525,0,.572.27.57.676-.011,1.852-.005,3.7-.005,5.551,0,2.291.007,4.582,0,6.871a5.66,5.66,0,0,1-5.721,5.817q-8.944.049-17.885,0a5.657,5.657,0,0,1-5.693-5.76c-.025-4.114-.009-8.226-.007-12.341,0-.373-.1-.809.523-.807,2.615.009,5.232,0,8,0A7.618,7.618,0,0,0-3.8,6.948,7.207,7.207,0,0,0-.845,10.62,7.458,7.458,0,0,0,8.14,9.979C10.912,7.568,11.36,4.191,9.383,0" transform="translate(11.439 10.502)" fill="#fff" fill-rule="evenodd"/>
    <path id="Path_5" data-name="Path 5" d="M9.79,2.207c0,.494.013.993,0,1.488A.946.946,0,0,0,10.819,4.8c.963.02,1.929.018,2.894,0A.957.957,0,0,0,14.74,3.758c.013-.525.005-1.047.005-1.574,0-2.439,0-2.422-2.459-2.442-2.785-.02-2.5.067-2.5,2.464m7.618,4.7c-.321.025-.535.055-.75.055-2.621.005-5.245.025-7.866-.011A2.017,2.017,0,0,1,7.616,6.51a7.442,7.442,0,0,0-9.664-.073,2.467,2.467,0,0,1-1.4.508c-2.512.047-5.023.02-7.535.015-.271,0-.539-.024-.8-.036C-12.1,2.666-12.072.314-9.419-1.554c0,1.714-.033,3.353.022,4.992.015.4-.437,1.175.526,1.167.883-.007.586-.71.594-1.167q.038-2.568,0-5.134c-.009-.588.224-.8.856-.714,0,2.1.02,4.191-.013,6.283-.009.648.242.905.821.692.182-.066.344-.457.348-.7.027-1.932.018-3.865,0-5.8,0-.545.115-.878.841-.623,0,1.743,0,3.5,0,5.26A6.394,6.394,0,0,0-5.4,3.946a.923.923,0,0,0,.483.639c.45.109.683-.146.678-.657-.018-1.9.02-3.808-.02-5.711-.015-.677.177-.907.88-.9,5.023.033,10.048.011,15.071.04A5.683,5.683,0,0,1,17.4,3.008c.024,1.268,0,2.537,0,3.9" transform="translate(11.921 2.687)" fill="#fff" fill-rule="evenodd"/>
    <path id="Path_6" data-name="Path 6" d="M4.522,2.626A4.152,4.152,0,0,0,.311-1.633,4.2,4.2,0,0,0-3.949,2.6,4.27,4.27,0,0,0,.326,6.841a4.209,4.209,0,0,0,4.2-4.214M.3,8.347a5.722,5.722,0,0,1-5.8-5.737A5.781,5.781,0,1,1,6.055,2.572,5.7,5.7,0,0,1,.3,8.347" transform="translate(14.4 12.275)" fill="#fff" fill-rule="evenodd"/>
  </g>
</svg>
