<svg xmlns="http://www.w3.org/2000/svg" width="237.344" height="106.551" viewBox="0 0 237.344 106.551">
  <g id="Group_6" data-name="Group 6" transform="translate(-167.021 -135.373)">
    <g id="Group_1" data-name="Group 1" transform="translate(167.021 136.373)">
      <path id="Path_1" data-name="Path 1" d="M310.31,642.819h-.591a6.08,6.08,0,0,1-6.188-6.091,6.163,6.163,0,0,1,6.188-6.189h.591V627.2c0-5.8,1.473-10.021,4.223-12.772s6.779-4.125,12.084-4.125a36.518,36.518,0,0,1,6.09.392,6.071,6.071,0,0,1,5.108,5.992,6.207,6.207,0,0,1-6.09,6.19h-1.277c-3.44,0-5.4,1.767-5.4,5.7v2.062h6.484a6.092,6.092,0,1,1,0,12.182h-6.287v33.009a7.466,7.466,0,1,1-14.932,0Z" transform="translate(-303.531 -604.504)" fill="#1a1818"/>
      <path id="Path_2" data-name="Path 2" d="M474.314,618.084c0-4.322,3.636-6.974,8.351-6.974s8.351,2.652,8.351,6.974v.2c0,4.322-3.636,7.074-8.351,7.074s-8.351-2.752-8.351-7.074Z" transform="translate(-432.759 -605.116)" fill="#030404"/>
      <path id="Path_3" data-name="Path 3" d="M477.951,696.5a7.466,7.466,0,1,1,14.932,0v38.9a7.466,7.466,0,1,1-14.932,0Z" transform="translate(-435.511 -664.076)" fill="#1a1818"/>
      <path id="Path_4" data-name="Path 4" d="M585.759,685.491V660.539h-.491a6.385,6.385,0,0,1,0-12.771h.491v-6.581a7.466,7.466,0,0,1,14.932,0v6.581h6.582a6.385,6.385,0,1,1,0,12.771h-6.582v22.5c0,3.438,1.473,5.11,4.814,5.11.491,0,1.474-.1,1.768-.1a6.226,6.226,0,0,1,6.188,6.189,6.075,6.075,0,0,1-3.831,5.6,22.035,22.035,0,0,1-8.547,1.473C591.948,701.308,585.759,697.674,585.759,685.491Z" transform="translate(-511.885 -622.224)" fill="#1a1818"/>
      <path id="Path_5" data-name="Path 5" d="M763.8,618.084c0-4.322,3.634-6.974,8.349-6.974s8.351,2.652,8.351,6.974v.2c0,4.322-3.635,7.074-8.351,7.074s-8.349-2.752-8.349-7.074Z" transform="translate(-651.806 -605.116)" fill="#ffbb16"/>
      <path id="Path_6" data-name="Path 6" d="M767.427,696.5a7.467,7.467,0,1,1,14.933,0v38.9a7.467,7.467,0,0,1-14.933,0Z" transform="translate(-654.553 -664.076)" fill="#1a1818"/>
      <path id="Path_7" data-name="Path 7" d="M889.352,618.172a7.467,7.467,0,1,1,14.934,0v57.96a7.467,7.467,0,0,1-14.934,0Z" transform="translate(-746.811 -604.808)" fill="#1a1818"/>
      <path id="Path_8" data-name="Path 8" d="M1001.768,724.03v-.2c0-11.494,8.742-16.8,21.219-16.8a37.417,37.417,0,0,1,12.869,2.161v-.884c0-6.189-3.832-9.627-11.3-9.627a34.254,34.254,0,0,0-10.315,1.473,6.329,6.329,0,0,1-2.161.393,6.081,6.081,0,0,1-6.19-6.091,6.19,6.19,0,0,1,4.028-5.8,45.839,45.839,0,0,1,16.8-2.752c8.153,0,14.048,2.162,17.781,5.895,3.928,3.93,5.7,9.725,5.7,16.8v23.97a7.171,7.171,0,0,1-7.27,7.172c-4.323,0-7.172-3.045-7.172-6.189v-.1c-3.635,4.028-8.644,6.682-15.914,6.682C1009.921,740.142,1001.768,734.444,1001.768,724.03Zm34.284-3.439v-2.653a23.168,23.168,0,0,0-9.529-1.965c-6.385,0-10.315,2.556-10.315,7.271v.2c0,4.028,3.341,6.387,8.155,6.387C1031.337,729.827,1036.052,726,1036.052,720.591Z" transform="translate(-831.874 -661.717)" fill="#030404"/>
      <line id="Line_1" data-name="Line 1" x2="5.345" y2="7.356" transform="translate(167.298 15.103)" fill="none" stroke="#030404" stroke-linecap="round" stroke-miterlimit="10" stroke-width="2"/>
      <line id="Line_2" data-name="Line 2" y1="7.357" x2="5.345" transform="translate(167.298 80.072)" fill="none" stroke="#ffbb16" stroke-linecap="round" stroke-miterlimit="10" stroke-width="2"/>
      <line id="Line_3" data-name="Line 3" y1="17.678" transform="translate(193.572 86.872)" fill="none" stroke="#030404" stroke-linecap="round" stroke-miterlimit="10" stroke-width="2"/>
      <line id="Line_4" data-name="Line 4" y1="17.678" transform="translate(193.066 0)" fill="none" stroke="#ffbb16" stroke-linecap="round" stroke-miterlimit="10" stroke-width="2"/>
      <line id="Line_5" data-name="Line 5" x1="5.343" y1="7.357" transform="translate(214.502 80.072)" fill="none" stroke="#ffbb16" stroke-linecap="round" stroke-miterlimit="10" stroke-width="2"/>
      <line id="Line_6" data-name="Line 6" x1="8.648" y1="2.811" transform="translate(227.436 62.269)" fill="none" stroke="#030404" stroke-linecap="round" stroke-miterlimit="10" stroke-width="2"/>
      <line id="Line_7" data-name="Line 7" x1="8.648" y2="2.81" transform="translate(227.436 37.452)" fill="none" stroke="#ffbb16" stroke-linecap="round" stroke-miterlimit="10" stroke-width="2"/>
      <line id="Line_8" data-name="Line 8" x1="5.343" y2="7.356" transform="translate(214.502 15.103)" fill="none" stroke="#030404" stroke-linecap="round" stroke-miterlimit="10" stroke-width="2"/>
      <text id="COMMUNICATING_INSIGHTS_ENGAGING_AUDIENCES" data-name="COMMUNICATING INSIGHTS | ENGAGING AUDIENCES" transform="translate(6.087 88.157)" fill="#1a1818" font-size="4" font-family="Helvetica-Bold, Helvetica" font-weight="700"><tspan x="0" y="0">COMMUNICATING INSIGHTS | ENGAGING AUDIENCES</tspan></text>
      <text id="TM" transform="translate(230.064 14.707)" fill="#1a1818" font-size="4" font-family="Helvetica"><tspan x="0" y="0">TM</tspan></text>
    </g>
  </g>
</svg>
