<svg xmlns="http://www.w3.org/2000/svg" xmlns:xlink="http://www.w3.org/1999/xlink" width="313" height="334" viewBox="0 0 313 334">
  <defs>
    <linearGradient id="linear-gradient" y1="0.5" x2="1" y2="0.5" gradientUnits="objectBoundingBox">
      <stop offset="0" stop-color="#1a1818"/>
      <stop offset="1" stop-color="#313133"/>
    </linearGradient>
    <linearGradient id="linear-gradient-2" x1="0" y1="0.5" x2="1" y2="0.5" xlink:href="#linear-gradient"/>
    <linearGradient id="linear-gradient-3" x1="0" y1="0.5" x2="1" y2="0.5" xlink:href="#linear-gradient"/>
    <linearGradient id="linear-gradient-4" x1="0" y1="0.5" x2="1" y2="0.5" xlink:href="#linear-gradient"/>
  </defs>
  <g id="Group_1563" data-name="Group 1563" transform="translate(-1072 -1580)">
    <text id="Training_-_Infographics_Explainer_Videos" data-name="Training - Infographics,
Explainer Videos" transform="translate(1225 1823)" fill="#1a1818" font-size="18" font-family="Helvetica-Bold, Helvetica" font-weight="700"><tspan x="-99.51" y="0">Training - Infographics,</tspan><tspan x="-72.369" y="18">Explainer Videos</tspan></text>
    <path id="Path_126" data-name="Path 126" d="M235.821,372.133H199.156V299.5H320.211v72.634H284.43" transform="translate(1012.279 1361.14)" fill="none" stroke="#707070" stroke-miterlimit="10" stroke-width="1"/>
    <path id="Path_127" data-name="Path 127" d="M236.366,325.234H213.46v-22.9h1.249a21.685,21.685,0,0,1,21.657,21.657Zm-20.411-2.495h17.878a19.2,19.2,0,0,0-17.878-17.878Z" transform="translate(1034.502 1365.54)" fill="#ffbb16" stroke="#ffbb16" stroke-miterlimit="10" stroke-width="1"/>
    <path id="Path_128" data-name="Path 128" d="M328.079,305.453h-131v-9.786h131v9.786Z" transform="translate(1009.058 1355.187)" fill="#ffbb16"/>
    <line id="Line_9" data-name="Line 9" y1="6.471" transform="translate(1271.638 1644.382)" fill="#fff"/>
    <path id="Path_129" data-name="Path 129" d="M227.907,347.317a3.062,3.062,0,1,1-3.064-3.064,3.061,3.061,0,0,1,3.064,3.064Z" transform="translate(1047.433 1430.671)" fill="url(#linear-gradient)"/>
    <path id="Path_130" data-name="Path 130" d="M239.6,348.7a3.248,3.248,0,1,1-3.253-3.248A3.246,3.246,0,0,1,239.6,348.7Z" transform="translate(1065.015 1432.534)" fill="url(#linear-gradient-2)"/>
    <path id="Path_131" data-name="Path 131" d="M216.916,348.7a3.248,3.248,0,1,1-3.253-3.248,3.247,3.247,0,0,1,3.253,3.248Z" transform="translate(1029.779 1432.534)" fill="url(#linear-gradient-3)"/>
    <line id="Line_10" data-name="Line 10" y2="39.332" transform="translate(1272.279 1735.917)" fill="none" stroke="#707070" stroke-miterlimit="10" stroke-width="1"/>
    <line id="Line_11" data-name="Line 11" x1="27.793" y2="31.12" transform="translate(1244.485 1746.867)" fill="none" stroke="#707070" stroke-miterlimit="10" stroke-width="1"/>
    <line id="Line_12" data-name="Line 12" x1="27.793" y2="31.12" transform="translate(1244.485 1746.867)" fill="none" stroke="#707070" stroke-miterlimit="10" stroke-width="1"/>
    <line id="Line_13" data-name="Line 13" x2="27.794" y2="31.12" transform="translate(1272.279 1746.867)" fill="none" stroke="#707070" stroke-miterlimit="10" stroke-width="1"/>
    <path id="Path_132" data-name="Path 132" d="M261.949,333.527H213.487v-8.11h48.462v8.11Z" transform="translate(1034.544 1401.407)" fill="#ffbb16"/>
    <path id="Path_133" data-name="Path 133" d="M210.435,340.691l-.886-.881a21.656,21.656,0,0,1,15.314-36.969h1.249v22.171Zm13.184-35.317a19.167,19.167,0,0,0-13.156,31.765l13.156-13.156Z" transform="translate(1018.579 1366.332)" fill="#fff"/>
    <path id="Path_134" data-name="Path 134" d="M223.177,335.363a21.507,21.507,0,0,1-15.317-6.343l-.884-.881,15.679-15.677h22.176v1.246A21.681,21.681,0,0,1,223.177,335.363Zm-12.646-7.252A19.169,19.169,0,0,0,242.3,314.957H223.69Z" transform="translate(1024.43 1381.28)" fill="#fff"/>
    <path id="Path_135" data-name="Path 135" d="M200.627,317.833h-5.71l-5.342,5.919-5.347-5.919H178.52a8.562,8.562,0,0,0-8.562,8.562v13.3h39.231V326.4a8.565,8.565,0,0,0-8.562-8.562Z" transform="translate(966.916 1389.624)" fill="url(#linear-gradient-4)"/>
    <path id="Path_136" data-name="Path 136" d="M174.081,368.663h-4.027l-5.608-19.8h67.378l-5.61,19.8h-3.95m-57.817-24.7h67.378v4.893H164.446v-4.893Zm9.946-28.8-8.925,4.691,3.616,24.106M224.4,316.225l9.165,9.477-5.054,19.014m-6.325,54.214H174.091v-43h48.092v43Z" transform="translate(958.352 1385.487)" fill="none" stroke="#1a1818" stroke-width="1"/>
    <path id="Path_137" data-name="Path 137" d="M168.214,316.8a3.888,3.888,0,1,1,3.889,3.894,3.891,3.891,0,0,1-3.889-3.894Z" transform="translate(964.206 1381.98)" fill="#ffbb16"/>
    <path id="Path_138" data-name="Path 138" d="M185.124,316.935a3.986,3.986,0,1,1,3.986,3.986,3.989,3.989,0,0,1-3.986-3.986Z" transform="translate(990.478 1382.029)" fill="#ffbb16"/>
    <path id="Path_139" data-name="Path 139" d="M197.22,319.01a12.195,12.195,0,1,1-12.2-12.194A12.195,12.195,0,0,1,197.22,319.01Z" transform="translate(971.378 1372.508)" fill="#fff"/>
    <path id="Path_140" data-name="Path 140" d="M172.982,318.548a11.891,11.891,0,1,1,11.89,11.89,11.887,11.887,0,0,1-11.89-11.89Z" transform="translate(971.614 1372.267)" fill="#ffbb16"/>
    <path id="Path_141" data-name="Path 141" d="M224.961,323.9l.138-20.715a21.3,21.3,0,0,0-20.636,14.471,22.438,22.438,0,0,0,5.194,21.851Z" transform="translate(1019.066 1366.843)" fill="url(#linear-gradient-4)"/>
    <path id="Path_142" data-name="Path 142" d="M221.8,312.979l-13.881,14.27s7.265,9.99,23.092,3.5c0,0,10.9-5.319,11.027-17.513Z" transform="translate(1025.896 1382.083)" fill="url(#linear-gradient-4)"/>
    <line id="Line_14" data-name="Line 14" x2="34.97" transform="translate(1283.355 1676.223)" fill="#ffbb16" stroke="#ffbb16" stroke-miterlimit="10" stroke-width="1"/>
    <line id="Line_15" data-name="Line 15" x2="34.97" transform="translate(1283.355 1685.906)" fill="#ffbb16" stroke="#ffbb16" stroke-miterlimit="10" stroke-width="1"/>
    <line id="Line_16" data-name="Line 16" x2="21.832" transform="translate(1296.493 1696.762)" fill="#ffbb16" stroke="#ffbb16" stroke-miterlimit="10" stroke-width="1"/>
    <line id="Line_17" data-name="Line 17" x2="21.832" transform="translate(1296.493 1709.752)" fill="#ffbb16" stroke="#ffbb16" stroke-miterlimit="10" stroke-width="1"/>
    <g id="Rectangle_1575" data-name="Rectangle 1575" transform="translate(1072 1580)" fill="none" stroke="#707070" stroke-width="1">
      <rect width="313" height="334" stroke="none"/>
      <rect x="0.5" y="0.5" width="312" height="333" fill="none"/>
    </g>
  </g>
</svg>
