<svg xmlns="http://www.w3.org/2000/svg" width="313" height="334" viewBox="0 0 313 334">
  <g id="Group_1562" data-name="Group 1562" transform="translate(-715 -1580)">
    <text id="Website_Mobile_App_Development" data-name="Website &amp; Mobile App
Development" transform="translate(878.156 1830)" fill="#1a1818" font-size="18" font-family="Helvetica-Bold, Helvetica" font-weight="700"><tspan x="-94.012" y="0">Website &amp; Mobile App</tspan><tspan x="-56.514" y="18">Development</tspan></text>
    <g id="Group_10" data-name="Group 10" transform="translate(403.713 -17.63)">
      <g id="Group_9" data-name="Group 9" transform="translate(362 1665)">
        <g id="Group_8" data-name="Group 8" transform="translate(0 0)">
          <path id="Path_88" data-name="Path 88" d="M618.859,203.33v1.591a2.983,2.983,0,0,0,2.975,2.972h47.092a2.979,2.979,0,0,0,2.975-2.972V203.33Z" transform="translate(-533.506 -91.757)" fill="#1a1818"/>
          <path id="Path_89" data-name="Path 89" d="M710.865,221.661H606.827a3.716,3.716,0,0,1-3.713-3.71v-24.41a1.1,1.1,0,0,1,2.206,0v24.41a1.507,1.507,0,0,0,1.507,1.5H710.865a1.1,1.1,0,1,1,0,2.206Z" transform="translate(-558.958 -109.36)" fill="#1a1818"/>
          <path id="Path_90" data-name="Path 90" d="M660.583,227.016a1.1,1.1,0,0,1-1.107-1.1v-53.7a1.513,1.513,0,0,0-1.507-1.51h-6.2a1.1,1.1,0,0,1,0-2.2h6.2a3.715,3.715,0,0,1,3.713,3.713v53.7a1.1,1.1,0,0,1-1.1,1.1Z" transform="translate(-482.089 -148.063)" fill="#1a1818"/>
          <path id="Path_91" data-name="Path 91" d="M657.2,170.7h-11.3a1.1,1.1,0,1,1,0-2.2h11.3a1.1,1.1,0,1,1,0,2.2Z" transform="translate(-491.568 -148.063)" fill="#1a1818"/>
          <path id="Path_92" data-name="Path 92" d="M646.666,170.7h-3.626a1.1,1.1,0,1,1,0-2.2h3.626a1.1,1.1,0,1,1,0,2.2Z" transform="translate(-496.203 -148.063)" fill="#1a1818"/>
          <path id="Path_93" data-name="Path 93" d="M684.26,170.7H615.108a1.1,1.1,0,1,1,0-2.2H684.26a1.1,1.1,0,0,1,0,2.2Z" transform="translate(-541.354 -148.063)" fill="#1a1818"/>
          <path id="Path_94" data-name="Path 94" d="M609.456,214.777h-6.222a3.361,3.361,0,0,1-3.36-3.354v-5.3a3.361,3.361,0,0,1,3.36-3.357H716.1a1.1,1.1,0,1,1,0,2.206H603.234a1.155,1.155,0,0,0-1.151,1.151v5.3a1.151,1.151,0,0,0,1.151,1.149h6.222a1.1,1.1,0,0,1,0,2.206Z" transform="translate(-564.195 -92.67)" fill="#1a1818"/>
          <path id="Path_95" data-name="Path 95" d="M608.836,208.719h-3.088a1.1,1.1,0,1,1,0-2.206h3.088a1.1,1.1,0,1,1,0,2.206Z" transform="translate(-556.484 -86.611)" fill="#1a1818"/>
          <path id="Path_96" data-name="Path 96" d="M616.511,208.719h-8.064a1.1,1.1,0,1,1,0-2.206h8.064a1.1,1.1,0,0,1,0,2.206Z" transform="translate(-552.121 -86.611)" fill="#1a1818"/>
          <path id="Path_97" data-name="Path 97" d="M696.609,208.719H613a1.1,1.1,0,0,1,0-2.206h83.611a1.1,1.1,0,1,1,0,2.206Z" transform="translate(-544.76 -86.611)" fill="#1a1818"/>
          <path id="Path_98" data-name="Path 98" d="M669.607,209.68H622.514a4.082,4.082,0,0,1-4.077-4.077v-1.591a1.1,1.1,0,1,1,2.206,0V205.6a1.875,1.875,0,0,0,1.871,1.871h47.092a1.874,1.874,0,0,0,1.871-1.871v-1.591a1.1,1.1,0,0,1,2.208,0V205.6a4.084,4.084,0,0,1-4.079,4.077Z" transform="translate(-534.186 -92.439)" fill="#1a1818"/>
          <path id="Path_99" data-name="Path 99" d="M706.338,214.559H607.075a1.107,1.107,0,0,1-1.107-1.1V193.6a1.105,1.105,0,1,1,2.211,0v18.747h98.159a1.1,1.1,0,0,1,0,2.208Z" transform="translate(-554.344 -109.268)" fill="#1a1818"/>
          <path id="Path_100" data-name="Path 100" d="M712.486,222.066a1.1,1.1,0,0,1-1.107-1.107V173.744H615.042a1.105,1.105,0,0,1,0-2.211h97.444a1.1,1.1,0,0,1,1.1,1.1v48.322a1.1,1.1,0,0,1-1.1,1.107Z" transform="translate(-541.461 -143.157)" fill="#1a1818"/>
          <path id="Path_101" data-name="Path 101" d="M708.192,172.91H614.309c.005.1.023.183.023.288v4.67h93.86a1.187,1.187,0,0,0,1.17-1.2v-2.567a1.188,1.188,0,0,0-1.17-1.2Z" transform="translate(-540.861 -140.931)" fill="#1a1818"/>
          <path id="Path_102" data-name="Path 102" d="M633.349,170h-5.586a1.105,1.105,0,0,0,0,2.211h5.586a1.105,1.105,0,1,0,0-2.211Z" transform="translate(-520.897 -145.629)" fill="#1a1818"/>
          <path id="Path_103" data-name="Path 103" d="M631.591,170a1.1,1.1,0,1,0,1.1,1.1,1.1,1.1,0,0,0-1.1-1.1Z" transform="translate(-514.709 -145.629)" fill="#1a1818"/>
          <path id="Path_104" data-name="Path 104" d="M683.569,218.839H616.945a1.1,1.1,0,0,1-1.1-1.1V182.066a3.355,3.355,0,0,1,3.354-3.357h62.119a3.357,3.357,0,0,1,3.354,3.357v35.668a1.1,1.1,0,0,1-1.1,1.1Zm-65.52-2.208h64.419V182.066a1.159,1.159,0,0,0-1.151-1.154H619.2a1.153,1.153,0,0,0-1.149,1.154V216.63Z" transform="translate(-538.381 -131.557)" fill="#ffbb16"/>
          <path id="Path_105" data-name="Path 105" d="M681.316,201.928H619.2a3.36,3.36,0,0,1-3.354-3.36V195.69a1.1,1.1,0,0,1,1.1-1.1h66.624a1.1,1.1,0,0,1,1.1,1.1v2.878a3.362,3.362,0,0,1-3.354,3.36Zm-63.267-5.136v1.777a1.145,1.145,0,0,0,1.149,1.149h62.119a1.151,1.151,0,0,0,1.151-1.149v-1.777Z" transform="translate(-538.381 -105.891)" fill="#ffbb16"/>
          <path id="Path_106" data-name="Path 106" d="M673.219,190.461h-24.81a4.076,4.076,0,0,0-4.066,4.069v44.434a4.077,4.077,0,0,0,4.066,4.069h24.81a4.081,4.081,0,0,0,4.069-4.069V194.53a4.08,4.08,0,0,0-4.069-4.069Zm-1.366,41.461H649.775V196.38h22.078v35.543Z" transform="translate(-492.31 -112.56)" fill="#1a1818"/>
          <path id="Path_107" data-name="Path 107" d="M673.9,244.818h-24.81a5.177,5.177,0,0,1-5.17-5.173V195.212a5.179,5.179,0,0,1,5.17-5.173H673.9a5.181,5.181,0,0,1,5.173,5.173v44.434a5.179,5.179,0,0,1-5.173,5.173Zm-24.81-52.574a2.97,2.97,0,0,0-2.967,2.967v44.434a2.97,2.97,0,0,0,2.967,2.967H673.9a2.969,2.969,0,0,0,2.962-2.967V195.212a2.969,2.969,0,0,0-2.962-2.967Z" transform="translate(-492.992 -113.242)" fill="#fff"/>
          <path id="Path_108" data-name="Path 108" d="M669.179,230.049H647.1a1.1,1.1,0,0,1-1.1-1.1V193.405a1.1,1.1,0,0,1,1.1-1.1h22.078a1.1,1.1,0,0,1,1.1,1.1v35.543a1.1,1.1,0,0,1-1.1,1.1Zm-20.971-2.2h19.867V194.509H648.208v33.337Z" transform="translate(-489.637 -109.585)" fill="#ffbb16"/>
          <path id="Path_109" data-name="Path 109" d="M655.755,210.059h-5.481a1.105,1.105,0,1,1,0-2.211h5.481a1.105,1.105,0,0,1,0,2.211Z" transform="translate(-484.512 -84.453)" fill="#fff"/>
          <path id="Path_110" data-name="Path 110" d="M663.874,197.163H648.041a.7.7,0,0,1-.693-.693v-2.085a.7.7,0,0,1,.693-.693h15.833a.7.7,0,0,1,.688.693v2.085a.7.7,0,0,1-.688.693Z" transform="translate(-487.453 -107.338)" fill="#ffbb16"/>
          <path id="Path_111" data-name="Path 111" d="M660.129,203.314a5.866,5.866,0,1,1-5.869-5.869,5.872,5.872,0,0,1,5.869,5.869Z" transform="translate(-485.759 -101.27)" fill="#ffbb16"/>
          <path id="Path_112" data-name="Path 112" d="M639.255,167.827H595.1v10.6h44.158v-10.6Z" transform="translate(-571.916 -149.147)" fill="#1a1818"/>
          <path id="Path_113" data-name="Path 113" d="M639.935,180.21H595.779a1.105,1.105,0,0,1-1.1-1.1v-10.6a1.107,1.107,0,0,1,1.1-1.1h44.156a1.107,1.107,0,0,1,1.1,1.1v10.6a1.105,1.105,0,0,1-1.1,1.1ZM596.885,178h41.945v-8.386H596.885V178Z" transform="translate(-572.596 -149.83)" fill="#ffbb16"/>
          <path id="Path_114" data-name="Path 114" d="M593.446,212.293a1.107,1.107,0,0,1-1.1-1.107V168.624a3.605,3.605,0,0,1,3.6-3.606H647.32a3.606,3.606,0,0,1,3.6,3.606v25.864a1.1,1.1,0,1,1-2.206,0V168.624a1.4,1.4,0,0,0-1.395-1.4H595.945a1.4,1.4,0,0,0-1.4,1.4v42.563a1.106,1.106,0,0,1-1.1,1.107Z" transform="translate(-576.371 -153.688)" fill="#1a1818"/>
          <path id="Path_115" data-name="Path 115" d="M593.446,188.814a1.1,1.1,0,0,1-1.1-1.1v-2.823a1.1,1.1,0,1,1,2.206,0v2.823a1.1,1.1,0,0,1-1.1,1.1Z" transform="translate(-576.371 -123.356)" fill="#1a1818"/>
          <path id="Path_116" data-name="Path 116" d="M593.446,194.446a1.106,1.106,0,0,1-1.1-1.1v-5.913a1.1,1.1,0,1,1,2.206,0v5.913a1.105,1.105,0,0,1-1.1,1.1Z" transform="translate(-576.371 -119.247)" fill="#1a1818"/>
          <path id="Path_117" data-name="Path 117" d="M647.32,221.342H595.945a3.6,3.6,0,0,1-3.6-3.6V214.05a1.1,1.1,0,1,1,2.206,0v3.692a1.4,1.4,0,0,0,1.4,1.395H647.32a1.4,1.4,0,0,0,1.395-1.395V176.963a1.1,1.1,0,1,1,2.206,0v40.778a3.605,3.605,0,0,1-3.6,3.6Z" transform="translate(-576.371 -136.164)" fill="#1a1818"/>
          <path id="Path_118" data-name="Path 118" d="M639.935,223.9H595.779a1.1,1.1,0,0,1-1.1-1.1v-54.29a1.107,1.107,0,0,1,1.1-1.1h44.156a1.107,1.107,0,0,1,1.1,1.1V222.8a1.1,1.1,0,0,1-1.1,1.1Zm-43.05-2.206h41.945V169.616H596.885V221.7Z" transform="translate(-572.596 -149.83)" fill="#1a1818"/>
          <path id="Path_119" data-name="Path 119" d="M605.667,196.277a3.445,3.445,0,1,1,3.449-3.441,3.448,3.448,0,0,1-3.449,3.441Zm0-4.684a1.242,1.242,0,1,0,1.238,1.243,1.238,1.238,0,0,0-1.238-1.243Z" transform="translate(-560.406 -114.294)" fill="#ffbb16"/>
          <path id="Path_120" data-name="Path 120" d="M625.247,183.846H599.994a2.073,2.073,0,0,1-2.078-2.07v-6.392a2.079,2.079,0,0,1,2.078-2.075h25.252a2.076,2.076,0,0,1,2.072,2.075v6.392a2.07,2.07,0,0,1-2.072,2.07Zm-25.119-2.206H625.11v-6.125H600.128v6.125Z" transform="translate(-567.359 -140.286)" fill="#ffbb16"/>
          <path id="Path_121" data-name="Path 121" d="M625.247,188.89H599.994a2.081,2.081,0,0,1-2.078-2.078V180.42a2.078,2.078,0,0,1,2.078-2.072h25.252a2.075,2.075,0,0,1,2.072,2.072v6.392a2.078,2.078,0,0,1-2.072,2.078Zm-25.119-2.214H625.11v-6.123H600.128v6.123Z" transform="translate(-567.359 -132.14)" fill="#ffbb16"/>
          <path id="Path_122" data-name="Path 122" d="M619.2,189.466H600.359a.689.689,0,0,1-.685-.691v-4.281a.688.688,0,0,1,.685-.686H619.2a.688.688,0,0,1,.688.686v4.281a.69.69,0,0,1-.688.691Z" transform="translate(-564.518 -123.313)" fill="#ffbb16"/>
          <path id="Path_123" data-name="Path 123" d="M626.908,183.721l15.2,7.7-15.2,7.7V183.721Z" transform="translate(-520.494 -123.455)" fill="#ffbb16"/>
          <path id="Path_124" data-name="Path 124" d="M614.483,215.221h-1.816a11.936,11.936,0,0,0-1.387-3.352l1.285-1.277a1.116,1.116,0,0,0,0-1.573l-2.538-2.541a1.122,1.122,0,0,0-1.573,0l-1.282,1.282a11.95,11.95,0,0,0-3.352-1.387v-1.818a1.115,1.115,0,0,0-1.109-1.109h-3.587a1.118,1.118,0,0,0-1.115,1.109v1.818a11.974,11.974,0,0,0-3.352,1.389l-1.28-1.285a1.121,1.121,0,0,0-1.572,0l-2.536,2.541a1.107,1.107,0,0,0,0,1.573l1.28,1.28a11.914,11.914,0,0,0-1.384,3.349h-1.818a1.118,1.118,0,0,0-1.109,1.115v3.585a1.118,1.118,0,0,0,1.109,1.115h1.818a12.1,12.1,0,0,0,1.384,3.349l-1.28,1.285a1.1,1.1,0,0,0,0,1.57l2.536,2.538a1.116,1.116,0,0,0,1.572,0l1.285-1.282a11.941,11.941,0,0,0,3.347,1.384v1.816a1.117,1.117,0,0,0,1.115,1.112h3.587a1.114,1.114,0,0,0,1.109-1.112v-1.816a11.9,11.9,0,0,0,3.352-1.384l1.282,1.282a1.117,1.117,0,0,0,1.573,0l2.538-2.538a1.113,1.113,0,0,0,0-1.57l-1.285-1.285a11.952,11.952,0,0,0,1.387-3.349h1.816a1.114,1.114,0,0,0,1.109-1.115v-3.585a1.114,1.114,0,0,0-1.109-1.115Zm-13.567,10.547a7.642,7.642,0,1,1,7.645-7.64,7.641,7.641,0,0,1-7.645,7.64Z" transform="translate(-586.238 -91.567)" fill="#1a1818"/>
          <path id="Path_125" data-name="Path 125" d="M674.12,217.482h-7.991a1.1,1.1,0,0,1,0-2.208h7.991a.968.968,0,0,0,.965-.963v-3.375a1.1,1.1,0,0,1,.837-1.07,21.316,21.316,0,0,0,5.926-2.452,1.1,1.1,0,0,1,1.353.165l2.381,2.384a.976.976,0,0,0,1.366,0l4.715-4.718a.966.966,0,0,0,0-1.366L689.28,201.5a1.1,1.1,0,0,1-.165-1.35,21.281,21.281,0,0,0,2.457-5.924,1.1,1.1,0,0,1,1.068-.837h3.373a.968.968,0,0,0,.965-.965v-6.667a.969.969,0,0,0-.965-.968h-3.368a1.1,1.1,0,0,1-1.073-.835,21.28,21.28,0,0,0-2.457-5.929,1.1,1.1,0,0,1,.167-1.35l2.381-2.381a.963.963,0,0,0,0-1.363l-4.715-4.72a.971.971,0,0,0-1.366,0l-2.381,2.386a1.1,1.1,0,0,1-1.35.16,21.515,21.515,0,0,0-5.929-2.449,1.1,1.1,0,0,1-.837-1.07v-3.373a.962.962,0,0,0-.965-.96h-6.664a.962.962,0,0,0-.966.96v3.375a1.1,1.1,0,0,1-.837,1.068,21.374,21.374,0,0,0-5.929,2.454,1.1,1.1,0,0,1-1.35-.165l-2.384-2.386a.973.973,0,0,0-1.363,0l-4.715,4.72a.964.964,0,0,0,0,1.363l2.386,2.381a1.108,1.108,0,0,1,.162,1.353,21.233,21.233,0,0,0-2.059,4.537,1.1,1.1,0,0,1-2.1-.672,23.838,23.838,0,0,1,1.834-4.257l-1.782-1.779a3.177,3.177,0,0,1,0-4.485l4.72-4.72a3.174,3.174,0,0,1,4.48,0l1.784,1.784a23.428,23.428,0,0,1,4.948-2.046v-2.525a3.176,3.176,0,0,1,3.174-3.171h6.664a3.178,3.178,0,0,1,3.174,3.171v2.525a23.375,23.375,0,0,1,4.948,2.046l1.785-1.784a3.171,3.171,0,0,1,4.479,0l4.72,4.72a3.19,3.19,0,0,1,0,4.485l-1.782,1.779a23.717,23.717,0,0,1,2.049,4.948h2.52a3.178,3.178,0,0,1,3.171,3.174v6.667a3.176,3.176,0,0,1-3.171,3.171h-2.52a23.678,23.678,0,0,1-2.049,4.948l1.782,1.787a3.137,3.137,0,0,1,.921,2.237,3.178,3.178,0,0,1-.921,2.245l-4.72,4.715a3.166,3.166,0,0,1-4.479,0l-1.787-1.784a23.434,23.434,0,0,1-4.945,2.046v2.528a3.176,3.176,0,0,1-3.174,3.171Zm-3.331-13.088a15.208,15.208,0,0,1-5.353-.96,1.1,1.1,0,1,1,.772-2.067,13.1,13.1,0,1,0-6.9-18.614,1.091,1.091,0,0,1-1.5.432,1.1,1.1,0,0,1-.434-1.5,15.313,15.313,0,1,1,13.412,22.706Z" transform="translate(-487.33 -160.688)" fill="#1a1818"/>
        </g>
      </g>
    </g>
    <g id="Rectangle_1576" data-name="Rectangle 1576" transform="translate(715 1580)" fill="none" stroke="#707070" stroke-width="1">
      <rect width="313" height="334" stroke="none"/>
      <rect x="0.5" y="0.5" width="312" height="333" fill="none"/>
    </g>
  </g>
</svg>
