<svg xmlns="http://www.w3.org/2000/svg" xmlns:xlink="http://www.w3.org/1999/xlink" width="313" height="334" viewBox="0 0 313 334">
  <defs>
    <linearGradient id="linear-gradient" y1="0.5" x2="1" y2="0.5" gradientUnits="objectBoundingBox">
      <stop offset="0" stop-color="#1a1818"/>
      <stop offset="1" stop-color="#313133"/>
    </linearGradient>
    <linearGradient id="linear-gradient-2" x1="0" y1="0.5" x2="1" y2="0.5" xlink:href="#linear-gradient"/>
    <linearGradient id="linear-gradient-3" x1="0" y1="0.5" x2="1" y2="0.5" xlink:href="#linear-gradient"/>
    <linearGradient id="linear-gradient-4" x1="0" y1="0.5" x2="1" y2="0.5" xlink:href="#linear-gradient"/>
  </defs>
  <g id="Group_1559" data-name="Group 1559" transform="translate(-715 -1202)">
    <g id="Group_2" data-name="Group 2" transform="translate(765.87 1271.382)">
      <path id="Path_14" data-name="Path 14" d="M195.48,169.12a6.528,6.528,0,0,0-6.515,6.518V296.815a6.522,6.522,0,0,0,6.515,6.518H369.9a6.525,6.525,0,0,0,6.518-6.518V175.639a6.53,6.53,0,0,0-6.518-6.518ZM369.9,306.66H195.48a9.853,9.853,0,0,1-9.841-9.845V175.639a9.852,9.852,0,0,1,9.841-9.842H369.9a9.851,9.851,0,0,1,9.845,9.842V296.815a9.852,9.852,0,0,1-9.845,9.845Z" transform="translate(-176.768 -165.797)" fill="url(#linear-gradient)"/>
      <path id="Path_15" data-name="Path 15" d="M219.249,306.66A1.66,1.66,0,0,1,217.586,305V167.457a1.665,1.665,0,0,1,3.329,0V305a1.662,1.662,0,0,1-1.666,1.663Z" transform="translate(-113.324 -165.797)" fill="url(#linear-gradient-2)"/>
      <path id="Path_16" data-name="Path 16" d="M378.083,192.6H187.3a1.666,1.666,0,0,1,0-3.332H378.083a1.666,1.666,0,0,1,0,3.332Z" transform="translate(-176.768 -119.182)" fill="url(#linear-gradient-3)"/>
      <path id="Path_17" data-name="Path 17" d="M220.025,240.7a1.666,1.666,0,0,1-1.606-1.233c-.033-.11-2.544-9.5-4.771-18.42-3.505,5.255-11.37,8.5-22.875,9.289a1.664,1.664,0,1,1-.23-3.32c7.7-.529,20.764-2.768,21.782-11.809a1.666,1.666,0,0,1,1.547-1.481A1.685,1.685,0,0,1,215.594,215c1.236,5.186,2.81,11.323,4.046,16.04l6-37.085a1.66,1.66,0,0,1,1.514-1.385,1.691,1.691,0,0,1,1.717,1.144l8.823,27.243,5.339-5.485a1.667,1.667,0,0,1,2.69.433l6.1,12.559,3.9-4.909a1.679,1.679,0,0,1,2.272-.325h0s2.407,1.487,10.591,2.469A1.666,1.666,0,0,1,268.2,229a43.208,43.208,0,0,1-10.689-2.338L252.8,232.6a1.663,1.663,0,0,1-2.8-.308l-6.223-12.8-5.611,5.772a1.666,1.666,0,0,1-2.777-.654L227.83,201.29l-6.163,38.01a1.661,1.661,0,0,1-1.556,1.4Z" transform="translate(-170.11 -112.645)" fill="#464749"/>
      <path id="Path_18" data-name="Path 18" d="M304.566,203.478a1.9,1.9,0,0,1-.427-.054,14.081,14.081,0,0,1-2.2-.788c-1.433-.7-2.356-2.242-3.335-3.882-1.117-1.869-2.263-3.8-3.932-4.079-1.484-.251-3.529.714-6.073,2.863a4.561,4.561,0,0,1-3.918.714,7.1,7.1,0,0,1-5.067-4.634c-.8-2.257-2.875-5.327-3.852-5.351-.785,0-1.89,1.314-3.234,3.9-.46.8-2.747,4.527-5.927,4.783a4.675,4.675,0,0,1-4.135-2c-1.651-1.747-3.968-6.56-6.587-12.2-.788-1.69-1.481-3.171-1.965-4.1-.57-1.236-1.3-1.986-1.908-1.995h0c-.588,0-1.3.714-1.857,1.863l-.107.23c-8.032,17.39-11.645,16.064-13,15.554a11.245,11.245,0,0,1-1.042-.514c-1.514-.842-2.61-1.448-4.592.7a11.622,11.622,0,0,0-1.069,1.6c-1.547,2.571-4.135,6.859-9,7.381a1.662,1.662,0,1,1-.355-3.305c3.225-.349,5.121-3.49,6.5-5.79a12.112,12.112,0,0,1,1.514-2.183c3.711-4.034,7.023-2.2,8.611-1.317.239.131.457.251.651.34.576-.11,3.613-2.717,8.761-13.864l.131-.278c1.155-2.395,2.92-3.816,4.885-3.747,1.971.021,3.744,1.424,4.867,3.858.466.884,1.179,2.41,1.992,4.165,1.821,3.9,4.571,9.809,6.076,11.409.77.935,1.218.887,1.365.884,1.1-.093,2.577-1.848,3.272-3.067,1.43-2.756,3.314-5.634,6.208-5.634,4.177.119,6.886,7.426,6.912,7.5a4.116,4.116,0,0,0,2.248,2.443,2.244,2.244,0,0,0,1.514.092c3.341-2.825,6.208-3.992,8.737-3.58,3.186.54,4.876,3.377,6.238,5.655a8.607,8.607,0,0,0,1.935,2.6,10.814,10.814,0,0,0,1.588.552,1.665,1.665,0,0,1-.415,3.276Z" transform="translate(-109.554 -150.855)" fill="#464749"/>
      <path id="Path_19" data-name="Path 19" d="M392.857,218.9H184.328a1.666,1.666,0,0,1,0-3.332H392.857a1.666,1.666,0,0,1,0,3.332Z" transform="translate(-182.668 -66.949)" fill="url(#linear-gradient-4)"/>
      <path id="Path_20" data-name="Path 20" d="M213.174,215.4h5.548V174.366h-5.548V215.4Zm7.211,3.332h-8.874a1.662,1.662,0,0,1-1.66-1.666V172.7a1.663,1.663,0,0,1,1.66-1.663h8.874a1.666,1.666,0,0,1,1.666,1.663v44.367a1.665,1.665,0,0,1-1.666,1.666Z" transform="translate(-128.685 -155.391)" fill="#ffbb16"/>
      <path id="Path_21" data-name="Path 21" d="M200.284,215.4h5.545V174.366h-5.545V215.4Zm7.211,3.332h-8.874a1.662,1.662,0,0,1-1.663-1.666V172.7a1.664,1.664,0,0,1,1.663-1.663H207.5a1.667,1.667,0,0,1,1.66,1.663v44.367a1.666,1.666,0,0,1-1.66,1.666Z" transform="translate(-154.289 -155.391)" fill="#ffbb16"/>
      <path id="Path_22" data-name="Path 22" d="M206.731,200.646h5.545V181.79h-5.545v18.856Zm7.211,3.332h-8.874a1.662,1.662,0,0,1-1.663-1.666V180.127a1.663,1.663,0,0,1,1.663-1.66h8.874a1.665,1.665,0,0,1,1.663,1.66v22.185a1.664,1.664,0,0,1-1.663,1.666Z" transform="translate(-141.486 -140.636)" fill="#ffbb16"/>
      <path id="Path_23" data-name="Path 23" d="M193.834,193.92h5.548v-8.74h-5.548v8.74Zm7.214,3.332h-8.877a1.662,1.662,0,0,1-1.66-1.666V183.517a1.663,1.663,0,0,1,1.66-1.663h8.877a1.666,1.666,0,0,1,1.663,1.663v12.069a1.664,1.664,0,0,1-1.663,1.666Z" transform="translate(-167.093 -133.909)" fill="#ffbb16"/>
      <path id="Path_24" data-name="Path 24" d="M236.077,206.671h0Zm10.872,5.688h7.139a18.255,18.255,0,0,0-16.64-16.025l.018,7.092a11.027,11.027,0,0,1,9.483,8.934Zm8.916,3.326h-10.4a1.669,1.669,0,0,1-1.666-1.594,7.71,7.71,0,0,0-7.724-7.42l-.024-1.654L236,206.674a1.786,1.786,0,0,1-1.293-.439,1.742,1.742,0,0,1-.57-1.212l-.027-10.391a1.659,1.659,0,0,1,1.645-1.669l.317-.012a21.568,21.568,0,0,1,21.454,21.042,1.667,1.667,0,0,1-.481,1.194,1.639,1.639,0,0,1-1.185.5Z" transform="translate(-80.499 -111.872)" fill="url(#linear-gradient)"/>
      <path id="Path_25" data-name="Path 25" d="M246.861,234.5h.018l.272,1.672v-1.666a18.152,18.152,0,0,0,18.092-16.858h-7.089a11.09,11.09,0,0,1-11,9.8c-.024,0-.167,0-.242-.006a.66.66,0,0,1-.107,0,11.06,11.06,0,0,1-1.609-21.943v-7.133a18.127,18.127,0,0,0,1.547,36.144c.045,0,.081-.006.122-.006Zm.29,3.335,0-.027a1.939,1.939,0,0,1-.319.027,21.456,21.456,0,0,1-.006-42.907,1.608,1.608,0,0,1,1.191.481,1.667,1.667,0,0,1,.5,1.179v10.4a1.656,1.656,0,0,1-1.612,1.657,7.733,7.733,0,0,0-.128,15.455h.137l.194,1.675.054-1.66a7.748,7.748,0,0,0,7.736-7.745c0-.009-.018-.3-.018-.316a1.663,1.663,0,0,1,1.66-1.735h10.4a1.665,1.665,0,0,1,1.666,1.627l-1.666.036,1.669.081,0,.308a21.482,21.482,0,0,1-21.46,21.463Z" transform="translate(-97.229 -107.945)" fill="#ffbb16"/>
    </g>
    <text id="Data_Aggregation_Analysis" data-name="Data Aggregation &amp;
Analysis" transform="translate(871.311 1465)" fill="#1a1818" font-size="18" font-family="Helvetica-Bold, Helvetica" font-weight="700"><tspan x="-83.676" y="0">Data Aggregation &amp;</tspan><tspan x="-37.02" y="22">Analysis</tspan></text>
    <g id="Rectangle_1573" data-name="Rectangle 1573" transform="translate(715 1202)" fill="none" stroke="#707070" stroke-width="1">
      <rect width="313" height="334" stroke="none"/>
      <rect x="0.5" y="0.5" width="312" height="333" fill="none"/>
    </g>
  </g>
</svg>
