<svg xmlns="http://www.w3.org/2000/svg" width="30.553" height="24.833" viewBox="0 0 30.553 24.833">
  <g id="Group_7" data-name="Group 7" transform="translate(0 -0.001)" opacity="0.4">
    <path id="Path_363" data-name="Path 363" d="M7.671.009,7.5.041,7.367.065,7.225.091,7.112.115,7.029.147,6.918.186,6.834.2,6.76.23,6.671.254,6.593.29,6.508.317,6.451.335,6.374.364,6.288.395l-.057.04L6.183.453,6.094.477,6.038.509l-.05.019-.06.034L5.87.595,5.846.608,5.784.64,5.739.669l-.06.024L5.626.724,5.6.756,5.545.779,5.487.81,5.431.839,5.407.855,5.353.887,5.3.916,5.268.937l-.06.034L5.158,1,5.1,1.029l-.031.024-.053.032-.032.031-.027.019-.047.024-.029.04-.027.021-.029.029L4.8,1.281,4.743,1.3l-.024.031-.032.029-.027.023-.026.023-.052.036-.029.018-.029.032-.031.027-.026.029-.027.026-.021.036-.032.021-.05.024L4.3,1.69l-.027.037-.024.016L4.22,1.77,4.194,1.8l-.032.026-.027.029-.024.031-.023.019-.027.066-.032.019L4,2.019l-.026.032-.019.024-.032.032-.026.024-.021.021-.031.029-.032.05-.021.031L3.758,2.3l-.031.053L3.7,2.378,3.669,2.4l-.024.065-.032.032-.021.021-.032.061L3.535,2.6l-.024.027-.032.052-.029.031-.021.053-.039.032-.026.052-.027.031-.029.048-.024.06-.021.024-.039.063L3.2,3.1l-.021.05-.032.032L3.12,3.23l-.032.053-.024.06L3.042,3.4l-.026.045-.034.068-.029.05-.024.048L2.9,3.674l-.027.081-.037.055-.019.06-.026.084-.029.131-.031.055L2.7,4.215,2.681,4.3l-.021.086-.036.1-.032.086L2.571,4.7l-.036.115-.024.128-.036.131-.023.119-.016.189L2.4,5.627,2.372,6.1v.291l.032.5.032.234.016.165.023.155.036.137.024.066-.359-.031-.326-.036L1.6,7.555,1.36,7.529,1.132,7.5.946,7.477l-.2-.036L.61,7.413.452,7.395.278,7.364.147,7.332,0,7.309l-.132-.023-.137-.032-.107-.032L-.6,7.2l-.107-.027L-.82,7.14l-.11-.018-.111-.042-.113-.029-.113-.021-.045-.024-.115-.034-.084-.023-.107-.029-.089-.032-.078-.016-.086-.034-.079-.031-.116-.021-.074-.029-.081-.032L-2.277,6.7l-.082-.027-.065-.032L-2.5,6.613l-.092-.019-.078-.034-.057-.032L-2.8,6.513l-.089-.029-.057-.029-.079-.031-.052-.032-.082-.026-.06-.016-.074-.037-.065-.026-.053-.026-.057-.026L-3.546,6.2l-.05-.024-.113-.029-.065-.032L-3.826,6.1-3.9,6.074l-.057-.036-.06-.021-.05-.029-.057-.032-.06-.024L-4.238,5.9l-.057-.024-.055-.032-.063-.015-.042-.039-.065-.031-.045-.019L-4.6,5.712l-.053-.031-.053-.023-.057-.032-.05-.032-.057-.015-.057-.04-.061-.031-.042-.016-.031-.032-.053-.029-.061-.019-.053-.032-.057-.032-.021-.018-.06-.026L-5.4,5.267l-.05-.019-.057-.031-.026-.026-.055-.026-.079-.034L-5.72,5.1l-.036-.026-.052-.019-.055-.034-.016-.032-.068-.019-.029-.026-.057-.029-.057-.024-.021-.031-.06-.032-.021-.011-.053-.044-.036-.029-.053-.016L-6.364,4.7l-.021-.036-.024-.021-.061-.032L-6.5,4.577l-.053-.031-.032-.018-.05-.037-.032-.026-.021-.019-.057-.029-.029-.031-.06-.021-.021-.032L-6.91,4.3l-.029-.019-.031-.037-.047-.029L-7.046,4.2l-.027-.029-.06-.031-.029-.031-.078-.024-.029-.031L-7.3,4.034-7.357,4l-.021-.029L-7.4,3.954l-.032-.027-.029-.034-.031-.023-.023-.032-.06-.027L-7.6,3.776l-.027-.021-.029-.036L-7.711,3.7l-.029-.021-.024-.029-.021-.032-.061-.021-.024-.027-.036-.031-.018-.019-.027-.039-.065-.029-.021-.021L-8.066,3.4-8.1,3.369l-.026-.026-.024-.026L-8.2,3.284l-.029-.016L-8.26,3.23-8.286,3.2l-.024-.018-.032-.032-.032-.027L-8.4,3.1l-.057-.029-.036-.034-.023-.029-.026-.024-.029-.034-.029-.026L-8.619,2.9l-.032-.029-.021-.031L-8.7,2.823l-.032-.031-.053-.032-.029-.018-.027-.036-.026-.031-.031-.019-.024-.032L-8.951,2.6l-.026-.021-.031-.034-.023-.027-.024-.021-.029-.032-.032-.032L-9.14,2.4l-.031-.019-.023-.029-.027-.029L-9.253,2.3l-.029-.032-.031-.031-.026-.019-.027-.031-.024-.029-.032-.021-.021-.057-.032-.024L-9.5,2.019l-.024-.027-.032-.019-.024-.036L-9.6,1.906l-.032-.019-.036-.031-.018-.029L-9.722,1.8l-.027-.058-.032-.016-.026-.037-.024-.032-.027-.024-.026-.021-.027-.036-.029-.026-.021-.057-.031-.032-.031-.018-.027-.036-.031-.023-.026-.023-.027-.06-.034-.023-.021-.031-.021-.029L-10.25,1.2l-.021-.065-.027-.019-.029-.031h-.024l-.026.031-.036.019-.021.024-.031.09L-10.5,1.3l-.021.06-.034.045-.027.053-.024.06-.027.055-.034.057-.019.057-.032.081-.026.057-.027.06-.023.086-.031.047-.026.057-.024.078-.036.079-.027.087-.029.078-.027.1-.026.1-.021.079-.037.116-.019.131-.029.147-.024.111-.032.187-.031.223-.026.334v.715l.026.344.031.205.032.157.024.161.029.15.019.1.037.116.021.113.026.086.027.107.029.055.027.078.036.079.024.092.026.044.031.086.023.063.027.081.026.05.032.065.019.078.034.057.027.045.024.071.027.05.034.027.021.055.032.032.031.108.021.047.036.057.026.031.024.05.029.036.027.047.021.057.039.027.021.058.021.018.034.066.027.019.026.034.031.057.027.023.031.066.031.018.021.031.029.048.027.031.026.031.027.019h.05v.071l.032.01.027.04.032.032.018.018.036.031.032.053.024.027.024.031.032.016.024.032.023.031.032.021.021.058.032.032.024.027.027.024.026.037.031.016.029.037.032.027.027.018.023.032.055.032.032.021.029.027.024.032.023.015.031.036.058.036.024.021.031.032.026.027.057.026.053.024.032.036.045.026.032.026.053.026h-.163L-8.977,9.4l-.194-.026-.168-.026-.137-.036L-9.6,9.292l-.2-.026-.078-.027-.108-.032-.089-.021-.087-.036-.081-.036-.078-.015-.086-.032-.021-.027-.084-.021-.061-.032-.052-.032-.086-.018-.053-.027-.053-.037-.05-.016-.063-.037-.057-.024-.047-.027-.057-.032-.053-.027-.063-.031h-.079v.438l.027.347.026.249.026.158.031.163.032.113.024.136.029.081.019.121.037.078.021.1.026.084.027.081.029.094.027.086.036.05.024.086.026.044.031.084.023.063.027.052.026.029.032.081.019.048.034.069.027.047.024.057.027.063.034.015.021.06.032.058.031.081.021.063.036.045.026.026.024.06.029.053.027.031.021.031.039.047.021.034.021.021.034.024.027.063.026.031.031.048.027.026.031.034.031.048.021.031.029.018.027.036.026.061.027.023.024.031.026.023.032.023.027.036.032.053.018.031.036.032.032.019.024.026.024.031.032.023.024.034.023.029.032.024.021.027.032.053.052.029.026.027.031.024.029.032.032.029.027.021.053.031.024.029.032.032.029.018.024.031.023.04.057.018.032.027.024.029.031.027.053.029.029.027.027.023.058.032.024.024.053.029.024.024.029.034.055.026.023.024.057.029.036.031.021.019.065.032.024.023.053.026.029.039.057.021.05.026.06.031.045.032.04.018.045.029.06.036.061.021.1.032.086.027.06.021.044.032.06.029.057.021.053.032.086.026.06.026.082.029.081.029.078.021.086.037.11.026.078.032.115.016.113.031.074.039H-6.5l-.108.016-.137.031-.166.021-.187.031-.26.032H-8.4l-.223-.032-.192-.031-.166-.021h-.107V15.1l.029.081.024.078.023.09.031.045.026.081.032.032.024.086.031.065.026.042.027.084.029.055.027.06.026.045L-8.7,16l.024.061.021.057.032.05.024.023.029.063.029.057.026.055.023.029.036.055.021.063.036.013.021.066.032.052.032.027.024.052.026.034.027.018.029.06.027.026.029.061.024.018.026.031.031.068.029.018.021.026.024.031.04.019.027.066.018.016.036.032.024.031.024.026.037.021.021.058.024.031.029.032.027.015.029.027.029.04.027.021.021.024.06.031.023.026.031.027.029.032.032.023.024.027.021.068.032.021.057.024.029.032.019.023.04.031.018.027.029.019.06.027.027.039.029.021L-7,18.1l.057.032.029.016.036.037.042.027.036.021.024.031.061.032.024.016.053.031.027.032.055.021.024.031.057.034.032.031.053.019.021.036.057.027.065.026.053.021.045.032.057.021.057.031.057.032.053.016.06.026.055.039.052.021.057.026.058.036.053.029.081.027.057.029.082.018.027.027.081.039.082.029.086.018.081.027.082.032.084.021.115.031.1.037.11.011.142.036.113.032.139.019.187.032.255.027.352.023-.029.032-.021.023-.032.026-.057.027L-3.5,19.6l-.026.015-.074.036-.057.029-.029.024-.027.032-.065.024-.024.019-.057.034-.026.039-.057.027-.021.018-.06.029-.026.032-.057.019-.024.034-.06.027-.024.023-.055.034-.031.029-.023.018-.06.031-.036.032-.042.021-.026.032-.06.029L-4.6,20.3l-.053.04-.021.031-.053.018-.057.031-.058.026-.027.029-.057.027-.061.032-.042.018-.06.029-.061.039-.024.027-.082.019-.048.027-.06.032-.05.021-.053.031-.061.031-.081.021-.053.034-.053.029-.057.015-.06.032-.042.032-.1.027-.057.029-.057.031-.081.018-.055.036-.055.032-.086.015-.045.034-.061.026-.081.031-.082.023-.053.032-.086.027-.081.026-.086.026-.078.037-.081.019-.082.027-.089.032-.089.019-.078.032-.082.027-.108.015-.115.037-.082.036-.1.013-.223.034-.113.027-.136.026-.14.031-.136.032-.139.013-.166.04-.194.032-.2.024-.189.021-.276.027-.359.032-.746.021h-.1l-.748-.021-.365-.032-.242-.027h-.081v.081l.029.032.027.026.053.023.027.037.058.027.021.023.063.032.044.026.032.023.055.031.058.032.024.019.057.034.057.029.026.021.057.027.053.034.063.019.024.026.058.036.048.021.053.036.057.027.032.023.053.026.053.031.079.031.063.023.053.032.057.024.047.021.057.034.063.032.05.019.053.031.053.029.052.021.061.036.052.029.055.016.063.037.021.031.061.015.053.032.087.029.042.032.061.019.057.029.089.034.05.023.053.037.078.023.06.021.05.031.092.031.057.026.079.031.053.029.078.016.06.036.06.029.078.018.086.036.079.027.14.026.082.029.078.031.086.019.078.032.092.031.053.023.082.026.084.031.079.026.1.029.086.031.084.026.111.026.086.027.108.032.115.016.078.034.1.032.123.023.1.031.121.026.131.019.11.037.136.034.134.015.121.031.134.026.163.029.17.026.163.031.2.016.158.039.228.032.245.015.268.036.334.024h2.7l.359-.024.3-.036.247-.015.213-.032.2-.039.187-.016.2-.031L.391,24.6l.131-.029L.7,24.546l.11-.031.14-.015.129-.034.142-.037.142-.019.1-.026.115-.031.1-.023.113-.032.086-.034.113-.016.107-.032.115-.027.081-.026.11-.026.071-.031.1-.029.11-.026.081-.031L2.816,24l.084-.023.082-.031.081-.032.082-.019.078-.031.084-.029.121-.026.107-.027.078-.036.057-.018.089-.029.05-.036.084-.016.058-.029.078-.031.06-.026.047-.031L4.22,23.5l.057-.021.081-.023.061-.037.048-.023.086-.034L4.6,23.33l.061-.019.06-.032.06-.029.05-.032.057-.015.053-.031.05-.037.057-.016.06-.029.053-.036.05-.021L5.268,23l.053-.031.057-.019.053-.032.057-.034.058-.021.052-.024.053-.032.06-.023.055-.031.057-.031L5.87,22.7l.058-.023.06-.027.029-.036.052-.021.053-.036.061-.026.021-.019.057-.034.053-.027.027-.021L6.4,22.4l.048-.034.029-.019.06-.032.053-.031.024-.023.053-.026L6.7,22.2l.06-.023.053-.027.021-.037.032-.023.032-.026.047-.032.027-.021.057-.032.029-.027.053-.021.024-.024.053-.032.036-.04.057-.013.024-.032.029-.031.057-.026.055-.027.052-.034.053-.013.036-.036.021-.037.063-.015.023-.027.024-.032.057-.019.024-.032.036-.027.023-.019.027-.037.024-.026.057-.026L7.99,21.3l.029-.032.063-.023.021-.031.036-.026.029-.034.045-.015.032-.032.031-.036.026-.018.057-.031L8.38,21l.029-.027.024-.032.026-.032.06-.015.021-.029.036-.034L8.6,20.8l.024-.031.057-.031.026-.021.031-.032.053-.027.032-.019.021-.027.032-.039.018-.029.032-.018.036-.032.024-.027.024-.029.029-.026.024-.031.057-.018.026-.031.027-.04.032-.013.024-.029.027-.032.026-.021.026-.032.036-.031.021-.018.027-.029.032-.034.029-.023.027-.027.029-.034.024-.019.032-.032.024-.029.023-.018.027-.027.026-.039.031-.034.036-.019.021-.024.036-.032.015-.024.039-.029.024-.036L9.9,19.6l.024-.037.027-.027.034-.026.031-.023.018-.032.026-.023.027-.027.032-.032.021-.019.031-.068.029-.011.026-.037.036-.031.021-.021.024-.032.032-.027.027-.018.026-.029.032-.066.021-.018.031-.029.026-.027.029-.029.024-.036.031-.026.032-.06.032-.026.026-.016.021-.032.031-.031.026-.053.053-.021.024-.053.032-.036.032-.019.021-.031.036-.065.027-.053L11,18.316l.029-.016.029-.032.016-.052.036-.027.032-.037.021-.016.029-.061.024-.021.036-.039.021-.047.032-.027.024-.031.029-.055.021-.024.036-.021.029-.068.024-.027.032-.055.021-.027.036-.026.029-.031.018-.024.027-.061.032-.027.016-.015.032-.063.029-.026.032-.053.032-.026.018-.063.034-.016.026-.066.027-.019.029-.057.024-.018.026-.068.036-.082.024-.027.032-.058.021-.027.026-.052.031-.052.024-.027.024-.052.032-.034.029-.032.029-.057.032-.019.021-.055.024-.063.032-.021.024-.057.029-.063.024-.023.031-.05.026-.057L12.57,16l.019-.016.029-.065.032-.05.026-.053.034-.058.027-.019.029-.068.026-.048.029-.057.027-.058.021-.032.029-.048.024-.048.026-.063.027-.057.032-.078.024-.05.029-.063.036-.052.015-.047.027-.069.036-.048.032-.084.027-.058.026-.052.027-.053.029-.061.021-.048.032-.053.024-.065.024-.05.029-.057.027-.086.029-.055.027-.05L13.565,14l.023-.058.031-.053.023-.082.027-.057.032-.074.027-.071.026-.079.027-.052.026-.086.027-.057.029-.053.024-.081.039-.087.018-.078.036-.065.026-.078.024-.108.027-.139.029-.082.026-.079.034-.087.021-.055.029-.078.029-.111.026-.084.027-.082.024-.113.027-.086.029-.1.036-.119.021-.082.024-.11.029-.084.029-.115.027-.107.024-.1.026-.15.031-.1.029-.14.029-.139.027-.134.029-.108.024-.173.029-.134.021-.17.027-.194.032-.182.029-.2.027-.213.023-.26.031-.292.029-.365.027-.625V6.181l.058-.029.018-.032.034-.018.05-.027.032-.036.032-.021.048-.029.032-.032.029-.024L15.38,5.9l.057-.024.023-.032.036-.015.024-.039.063-.031L15.6,5.74l.026-.027.027-.031.032-.023.05-.032.027-.032L15.8,5.58l.027-.04.029-.031.018-.016.057-.032.029-.029.027-.019.029-.032.036-.032.019-.044.023-.037.065-.019.021-.031.031-.026.058-.026.021-.034.032-.034.031-.026.021-.019.029-.034.029-.032.019-.019.04-.026.027-.029.023-.024.036-.031.021-.032.024-.011.032-.044.027-.029.026-.016.036-.026.018-.036.029-.021.031-.032.024-.032.023-.031.031-.018.032-.063.029-.019.027-.029L17,4.386l.032-.021.027-.032.032-.052.021-.037.029-.045.026-.029.039-.031.021-.031.048-.024.032-.05L17.34,4l.021-.029.021-.018.036-.061.026-.023.031-.032L17.5,3.81l.019-.055.039-.036.021-.024.029-.021.024-.061.032-.021.021-.027.036-.05.027-.039.029-.029.032-.045.018-.032.032-.026.024-.06.029-.016.027-.068.032-.018L18,3.149l.032-.05.021-.029.029-.063V2.9h-.029l-.074.019-.06.026-.053.034-.082.024-.057.029-.113.034-.089.029-.078.023-.082.027-.053.032-.081.018-.086.031-.05.037L17,3.284l-.074.034-.086.026-.084.026-.079.032-.1.024-.086.021-.089.029-.113.039-.11.019-.086.031-.107.027-.113.021-.107.032-.137.029-.107.021-.139.024-.166.036-.134.021-.145.034-.189.027h-.053l.053-.027.029-.034.048-.021.032-.036.057-.024.023-.021.031-.029.057-.032V3.564h.058l.018-.031.034-.019.05-.039.032-.029.032-.021.027-.024.021-.032.061-.026.024-.026.029-.034.027-.016.023-.037.036-.031.024-.018.032-.032.538-.573.032-.034.032-.027.021-.021.031-.032.023-.065.036-.019.021-.029.032-.053.031-.032.021-.031.029-.05.029-.029.019-.021.04-.057.027-.024.023-.032.036-.027.021-.055.024-.031.032-.05.027-.055L16.7,1.77l.036-.044.018-.069.029-.045.031-.036.024-.055.023-.06.031-.053.032-.045.029-.06.027-.053L17,1.2l.032-.065.027-.082.032-.082.021-.084.029-.048.026-.082.039-.087.021-.061.027-.079V.435h-.087l-.055.018-.021.024-.06.032L17,.529l-.045.034-.061.032L16.84.608,16.785.64l-.029.029L16.7.693l-.053.031-.057.032-.057.023-.05.031-.06.029-.058.016-.052.032-.053.029-.058.021-.052.034L16.066,1l-.084.034-.057.024-.057.032-.074.031-.06.019-.05.024L15.6,1.2l-.048.021-.057.029-.086.031-.082.023-.053.031-.092.029-.084.023-.05.023-.053.036-.082.018-.089.032-.078.027-.081.029-.089.026-.078.036-.1.021-.092.024-.078.032-.113.037-.107.016-.079.027-.12.031-.107.026-.113.029-.139.031-.11.019h-.078l-.026-.019-.027-.031-.032-.029L13.14,1.8l-.027-.031L13.1,1.743l-.036-.016-.029-.037-.024-.032-.032-.045-.027-.036-.026-.026L12.9,1.522l-.05-.027-.027-.032-.029-.018-.026-.036-.029-.023-.027-.023-.06-.029L12.619,1.3l-.029-.023-.048-.031-.026-.029L12.485,1.2l-.024-.04-.053-.024-.032-.019-.045-.031L12.3,1.053l-.058-.024L12.207,1,12.128.971,12.1.937,12.049.916l-.06-.029L11.963.855,11.939.839,11.882.81,11.856.779,11.8.756,11.74.724,11.679.693,11.63.669,11.585.64,11.556.608,11.5.595,11.414.562,11.357.529,11.3.509,11.251.477l-.06-.024L11.109.435l-.052-.04L10.978.364,10.915.335,10.862.317,10.782.29,10.7.254,10.616.23,10.529.2,10.443.186,10.337.147,10.224.115,10.117.091,9.983.065,9.847.041,9.7.009,9.515-.014H7.856Z" transform="translate(12.475 0.014)" fill="#fff" fill-rule="evenodd"/>
  </g>
</svg>
